<?xml version="1.0" encoding="UTF-8" standalone="no"?><!DOCTYPE svg PUBLIC "-//W3C//DTD SVG 1.1//EN" "http://www.w3.org/Graphics/SVG/1.1/DTD/svg11.dtd"><svg width="100%" height="100%" viewBox="0 0 402 874" version="1.1" xmlns="http://www.w3.org/2000/svg" xmlns:xlink="http://www.w3.org/1999/xlink" xml:space="preserve" xmlns:serif="http://www.serif.com/" style="fill-rule:evenodd;clip-rule:evenodd;stroke-linejoin:round;stroke-miterlimit:2;"><g><path d="M-0,173.133c0,0 23.066,16.167 26.785,-8.532c0,0 9.298,-2.694 7.439,-11.676c0,0 17.357,7.634 9.298,-21.107c0,0 7.289,-4.258 9.768,-6.728c2.408,-2.399 7.133,-5.513 5.109,-8.091c-2.351,-2.995 -8.679,-10.329 -19.217,-9.88c-10.538,0.449 -1.103,-8.456 0.116,-8.603c1.219,-0.147 19.5,5.003 22.344,2.796c2.844,-2.207 2.844,-7.652 0.609,-11.919c0,0 12.188,-7.063 10.156,-16.923c0,0 7.109,-1.177 8.938,-3.09c0,0 5.73,11.554 9.344,14.821c2.832,2.56 9.087,5.808 12.337,4.778c3.25,-1.03 5.538,-11.211 5.335,-15.037c0,0 7.105,10.889 13.605,10.006c6.5,-0.883 3.864,-7.505 4.676,-10.448c0,0 7.719,3.09 8.734,0.441c1.016,-2.649 -1.219,-8.829 -2.641,-10.448c0,0 5.281,-0.147 5.891,-6.18c0,0 23.563,5.445 28.641,-7.211c5.078,-12.655 4.266,-14.568 4.266,-14.568c0,0 9.75,-0.143 9.141,-10.742c0,0 9.141,12.062 25.594,5.735c0,0 -10.563,19.424 5.078,17.217c0,0 -11.837,17.117 7.122,21.512c0,0 -5.743,16.917 7.217,12.701c12.96,-4.215 9.522,-6.131 9.522,-6.131c0,0 6.877,13.604 21.424,6.898c0,0 3.703,16.861 16.134,15.903c12.431,-0.958 13.224,-14.179 13.224,-14.179c0,0 16.927,6.515 20.366,-2.299c3.438,-8.814 2.116,-12.454 2.116,-12.454c0,0 2.447,4.95 9.725,5.685c7.279,0.736 11.003,-0.981 11.003,-0.981c0,0 0.508,6.745 4.401,7.848c0,0 -12.189,16.422 1.353,21.633c13.542,5.212 15.446,3.066 15.446,3.066c0,0 0.846,4.445 7.406,4.599c0,0 -0.423,13.183 17.562,13.949c0,0 -4.753,42.422 26.632,29.24l-0,-154.732l-402,0l0,173.133Z" style="fill:#10252a;"/><path d="M0,635.011c0,0 23.066,-22.316 26.785,11.778c0,0 9.298,3.719 7.439,16.117c0,0 17.357,-10.538 9.298,29.135c0,0 7.289,5.878 9.768,9.288c2.408,3.311 7.133,7.61 5.109,11.169c-2.351,4.134 -8.679,14.258 -19.217,13.638c-10.538,-0.62 -1.103,11.673 0.116,11.876c1.219,0.203 19.5,-6.906 22.344,-3.859c2.844,3.047 2.844,10.563 0.609,16.453c0,0 12.188,9.75 10.156,23.36c0,0 7.109,1.625 8.938,4.266c0,0 5.73,-15.949 9.344,-20.458c2.832,-3.534 9.087,-8.018 12.337,-6.596c3.25,1.422 5.538,15.476 5.335,20.757c0,0 7.105,-15.031 13.605,-13.813c6.5,1.219 3.864,10.36 4.676,14.422c0,0 7.719,-4.266 8.734,-0.609c1.016,3.656 -1.219,12.188 -2.641,14.422c0,0 5.281,0.203 5.891,8.531c0,0 23.563,-7.516 28.641,9.953c5.078,17.469 4.266,20.11 4.266,20.11c0,0 9.75,0.197 9.141,14.828c0,0 9.141,-16.65 25.594,-7.916c0,0 -10.563,-26.813 5.078,-23.766c0,0 -11.837,-23.628 7.122,-29.695c0,0 -5.743,-23.351 7.217,-17.532c12.96,5.819 9.522,8.464 9.522,8.464c0,0 6.877,-18.779 21.424,-9.522c0,0 3.703,-23.275 16.134,-21.953c12.431,1.322 13.224,19.572 13.224,19.572c0,0 16.927,-8.993 20.366,3.174c3.438,12.167 2.116,17.192 2.116,17.192c0,0 2.447,-6.832 9.725,-7.848c7.279,-1.016 11.003,1.354 11.003,1.354c0,0 0.508,-9.31 4.401,-10.833c0,0 -12.189,-22.668 1.353,-29.862c13.542,-7.194 15.446,-4.232 15.446,-4.232c0,0 0.846,-6.136 7.406,-6.348c0,0 -0.423,-18.197 17.562,-19.255c0,0 -4.753,-58.559 26.632,-40.362l0,213.588l-402,0l0,-238.989Z" style="fill:#10252a;"/></g></svg>