<?xml version="1.0" encoding="UTF-8" standalone="no"?><!DOCTYPE svg PUBLIC "-//W3C//DTD SVG 1.1//EN" "http://www.w3.org/Graphics/SVG/1.1/DTD/svg11.dtd"><svg width="100%" height="100%" viewBox="0 0 402 874" version="1.1" xmlns="http://www.w3.org/2000/svg" xmlns:xlink="http://www.w3.org/1999/xlink" xml:space="preserve" xmlns:serif="http://www.serif.com/" style="fill-rule:evenodd;clip-rule:evenodd;stroke-linejoin:round;stroke-miterlimit:2;"><g><path d="M21.333,491.8c0,0 4.166,-20.835 2.592,-29.146c-1.427,-7.535 -5.964,-23.096 -9.446,-19.543c-4.875,4.975 -10.279,32.667 6.854,48.688Z" style="fill:#529055;"/><path d="M347.484,600.962c0,0 -23.54,-41.556 -24.431,-59.336c-0.857,-17.115 9.526,-40.759 19.087,-47.342l17.813,55.615l0.205,-69.192l24.733,-7.402l2.177,57.199l4.691,-55.356l10.241,3.483l0,130.31l-54.516,-7.978Z" style="fill:#174949;"/><g><path d="M324.207,617.065c4.824,-12.066 9.378,-52.387 8.338,-60.71c-0.94,-7.528 -12.327,-3.307 -14.276,10.735c1.675,-2.706 -2.901,-25.72 -9.783,-29.791c-10.624,-6.284 -12.89,31.983 -8.277,36.718c0,0 -7.253,-8.407 -10.557,-8.503c-10.541,-0.307 -8.862,19.551 -5.114,20.653c0,0 -12.242,-0.168 -16.896,2.467c-7.819,4.427 -6.594,25.005 -2.068,24.93l58.633,3.5Z" style="fill:#79b460;"/><path d="M321.268,615.499c0,0 4.052,-31.839 3.658,-35.53c-0.91,-8.514 -9.12,13.933 -9.12,13.933c0,0 -0.639,-29.109 -5.573,-28.374c-6.237,0.93 -3.8,31.16 -3.8,31.16c0,0 -8.18,-20.458 -11.892,-17.141c-3.384,3.024 2.576,22.334 2.576,22.334c0,0 -8.429,-8.571 -12.345,-8.867c-3.26,-0.246 -10.007,4.497 -11.147,7.093c-1.14,2.597 1.14,9.88 1.14,9.88l46.503,5.51Z" style="fill:#23796e;"/></g><g><path d="M146.148,613.565c0,0 -15.388,-23.037 -18.637,-32.042c-5.09,-14.109 -11.902,-52.614 -11.902,-52.614c17.165,10.35 29.222,24.956 34.017,45.614c1.296,-39.558 5.533,-69.709 11.983,-92.774c9.119,23.422 12.4,54.663 8.118,87.363c7.876,-16.796 14.544,-28.309 22.42,-34.79c4.89,23.755 -6.917,50.966 -9.08,52.228c0,0 12.23,-9.225 17.931,-9.706c-6.301,15.275 -12.602,28.417 -18.902,34.404l-35.95,2.319Z" style="fill:#7dbc6b;"/><path d="M149.707,609.576c0,0 -7.775,-10.894 -9.98,-16.242c-2.87,-6.96 -7.239,-25.519 -7.239,-25.519c7.3,10.984 14.405,23.915 21.177,40.178l4.639,-62.938c3.334,19.699 4.562,39.973 2.09,61.256l13.854,-26.225c-0.896,8.742 -3.524,17.483 -8.115,26.225l21.573,-12.964c-1.702,3.477 -4.033,7.373 -8.906,12.964l-29.094,3.265Z" style="fill:#217e6b;"/></g><g><path d="M0,486.039c15.314,22.672 19.617,48.308 18.591,75.379c0,0 7.216,-66.788 14.303,-88.113c5.132,-15.443 16.85,-34.809 23.035,-39.838c4.416,-3.59 12.598,4.168 14.074,9.664c2.764,10.286 5.632,35.465 2.507,52.053c-4.028,21.382 -26.673,76.237 -26.673,76.237c0,0 26.735,-33.789 37.695,-35.008c6.325,-0.703 13.389,7.808 13.651,14.078c0.262,6.27 -7.172,17.458 -12.077,23.541c-4.904,6.082 -39.457,34.909 -39.457,34.909l-26.673,8.124l-18.978,-18.537l0,-112.489Z" style="fill:#1d625f;"/><g><path d="M49.041,581.238l12.073,-12.271l4.156,-11.083l0,7.645l10.094,-7.447l3.958,-12.667l-0.99,10.094l8.511,-3.563l-18.406,15.438l7.719,0.198l-10.688,1.583l-13.261,14.646l-3.167,-2.573Z" style="fill:#59ce99;"/><path d="M24.302,603.602l8.511,-49.48l16.229,-8.708l-14.052,4.354l4.75,-24.503l17.615,-12.904l-16.823,8.313l6.648,-31.271l15.717,-7.323l-13.854,2.969l9.5,-37.407l-15.438,48.292l-5.344,-13.063l3.167,21.573l-6.531,31.968l-4.354,-14.353l2.375,18.802l-11.083,66.897l2.969,-4.156Z" style="fill:#59ce99;"/><path d="M11.887,565.529l-5.542,-20.114l1.425,-14.446l-3.008,10.133l-4.762,-13.402l9.987,40.477l1.9,-2.649Z" style="fill:#59ce99;"/></g></g><path d="M402,536.413l-3.079,19.05c0,0 -20.351,-32.594 -24.74,-27.956c-4.747,5.016 -5.868,38.198 10.638,63.581c-7.673,-6.074 -13.372,-5.241 -16.823,3.464c1.885,-4.817 -22.46,-25.166 -29.539,-17.615c-2.88,3.072 4.305,18.852 4.305,18.852c-1.937,-4.95 -24.087,-1.951 -24.443,9.5c-0.165,5.3 5.393,15.982 5.393,15.982l78.288,28.946l0,-113.803Z" style="fill:#112526;"/><path d="M-0,568.322c0,0 19.428,-14.39 23.078,-8.43c3.651,5.959 -1.175,44.187 -1.175,44.187c4.011,-14.369 14.574,-20.75 19.239,-23.619c28.863,-17.746 12.923,34.238 12.923,34.238c0,0 21.537,-23.721 28.748,-20.979c14.953,5.685 6.048,37.509 0.939,41.285l-71.997,19.171l-11.756,0l0,-85.853Z" style="fill:#133034;"/><path d="M0,657.006l0,216.994l402,0l-0,-219.825l-402,2.831Z" style="fill:#205541;"/><path d="M112.936,739.246c0,0 11.834,10.267 17.565,11.38c5.716,1.11 16.449,-2.869 16.823,-4.701c0.374,-1.831 -9.305,-5.264 -14.577,-6.288c-5.731,-1.113 -19.812,-0.392 -19.812,-0.392Z" style="fill:#14332e;"/><path d="M0,685.122l43.946,20.468l30.152,27.832c0,0 41.285,9.277 56.592,21.802c0,0 42.942,-11.133 70.31,-7.886c-3.759,-3.759 30.673,-16.376 58.182,1.855c3.396,-7.923 58.463,0.732 79.322,3.711c25.441,3.633 63.495,-49.634 63.495,-49.634l0,170.729l-402,0l0,-188.878Z" style="fill:#14332e;"/><path d="M385.44,632.439c0,0 12.003,4.605 16.56,7.915l0,21.892c-6.737,11.878 -14.977,20.319 -24.655,25.473l0.77,-12.01c0.739,3.326 -21.925,30.129 -31.331,27.812c-8.429,-2.075 -5.99,-12.034 -5.99,-12.034c0,0 -30.909,15.967 -45.786,19.622c-14.094,3.463 -43.477,2.309 -43.477,2.309l11.76,-5.443c0,0 -14.277,2.457 -23.589,6.343c-6.443,2.689 -22.592,-4.625 -34.062,-5.323c-14.06,-0.855 -33.63,2 -50.298,0.19c-17.425,-1.892 -40.976,-6.477 -54.25,-11.543c-9.849,-3.759 -25.394,-18.853 -25.394,-18.853l8.854,13.341c0,0 -18.619,1.804 -27.34,0.158c-8.722,-1.646 -19.479,-5.991 -24.991,-10.036c-4.399,-3.228 -4.232,-11.094 -8.08,-14.236c-3.848,-3.142 -24.14,-4.459 -24.14,-4.459l-0,-13.239c10.446,-9.909 26.064,-16.775 43.658,-22.479l281.268,0l60.514,4.6Z" style="fill:#417340;"/><g><path d="M156.071,780.679c0,0 -2.307,15.401 0,20.285c2.307,4.885 8.632,7.233 13.841,9.024c5.829,2.004 24.809,3.61 32.032,4.427c8.974,1.015 24.078,-9.975 24.078,-9.975l0,-13.113c0,0 -69.951,-8.556 -69.951,-10.649Z" style="fill:#172225;"/><path d="M221.382,783.009c-1.212,-1.409 -2.825,-3.102 -4.658,-4.797c-2.785,-2.576 -6.077,-5.156 -9.236,-6.746c-5.237,-2.636 -18.077,-3.597 -21.818,-3.312c-1.682,0.128 -0.626,5.022 -0.626,5.022c0,0 -8.364,-1.799 -12.398,-0.855c-4.707,1.102 -13.599,5.08 -15.844,7.467c-2.228,2.37 1.211,6.573 2.64,8.606c1.33,1.892 4.092,3.065 5.936,3.593c1.65,0.472 5.13,-0.428 5.13,-0.428l-1.226,3.088c0,0 9.373,3.483 14.265,4.393c5.657,1.053 14.432,1.959 19.679,1.924c3.998,-0.027 8.157,-0.497 11.804,-2.138c3.881,-1.746 9.722,-3.424 10.781,-6.06c1.059,-2.636 -2.1,-7.05 -4.43,-9.758Z" style="fill:#2b392c;"/><path d="M176.401,797.097c3.614,-0.583 7.437,-1.264 9.764,-1.861c4.691,-1.203 10.244,-3.347 13.592,-5.13c2.518,-1.341 6.498,-5.57 6.498,-5.57c0,0 7.962,1.95 10.848,4.02c1.708,1.225 4.303,3.837 6.649,6.35c-2.325,1.509 -6.004,2.698 -8.722,3.921c-3.647,1.64 -7.805,2.11 -11.804,2.138c-5.247,0.036 -14.022,-0.871 -19.679,-1.924c-1.96,-0.365 -4.639,-1.142 -7.146,-1.944Z" style="fill:#2f3e2b;"/><path d="M163.634,775.65c3.136,-1.462 6.616,-2.768 9.012,-3.329c4.033,-0.944 12.398,0.855 12.398,0.855c0,0 -1.056,-4.894 0.626,-5.022c3.741,-0.285 16.581,0.676 21.818,3.312c0.401,0.202 0.805,0.42 1.209,0.652c-3.072,2.339 -7.087,5.031 -10.478,6.094c-6.022,1.887 -18.041,3.071 -23.769,2.147c-3.13,-0.505 -7.502,-2.767 -10.815,-4.709Z" style="fill:#2f3e2b;"/></g><g><path d="M291.027,723.187c0,0 -2.307,15.401 0,20.285c2.307,4.885 8.632,7.233 13.841,9.024c5.829,2.004 24.809,3.61 32.032,4.427c8.974,1.015 24.078,-9.975 24.078,-9.975l0,-13.113c0,0 -69.951,-8.556 -69.951,-10.649Z" style="fill:#172225;"/><path d="M356.338,725.516c-1.212,-1.409 -2.825,-3.102 -4.658,-4.797c-2.785,-2.576 -6.077,-5.156 -9.236,-6.746c-5.237,-2.636 -18.077,-3.597 -21.818,-3.312c-1.682,0.128 -0.626,5.022 -0.626,5.022c0,0 -8.364,-1.799 -12.398,-0.855c-4.707,1.102 -13.599,5.08 -15.844,7.467c-2.228,2.37 1.211,6.573 2.64,8.606c1.33,1.892 4.092,3.065 5.936,3.593c1.65,0.472 5.13,-0.428 5.13,-0.428l-1.226,3.088c0,0 9.373,3.483 14.265,4.393c5.657,1.053 14.432,1.959 19.679,1.924c3.998,-0.027 8.157,-0.497 11.804,-2.138c3.881,-1.746 9.722,-3.424 10.781,-6.06c1.059,-2.636 -2.1,-7.05 -4.43,-9.758Z" style="fill:#2b392c;"/><path d="M311.358,739.604c3.614,-0.583 7.437,-1.264 9.764,-1.861c4.691,-1.203 10.244,-3.347 13.592,-5.13c2.518,-1.341 6.498,-5.57 6.498,-5.57c0,0 7.962,1.95 10.848,4.02c1.708,1.225 4.303,3.837 6.649,6.35c-2.325,1.509 -6.004,2.698 -8.722,3.921c-3.647,1.64 -7.805,2.11 -11.804,2.138c-5.247,0.036 -14.022,-0.871 -19.679,-1.924c-1.96,-0.365 -4.639,-1.142 -7.146,-1.944Z" style="fill:#2f3e2b;"/><path d="M298.591,718.157c3.136,-1.462 6.616,-2.768 9.012,-3.329c4.033,-0.944 12.398,0.855 12.398,0.855c0,0 -1.056,-4.894 0.626,-5.022c3.741,-0.285 16.581,0.676 21.818,3.312c0.401,0.202 0.805,0.42 1.209,0.652c-3.072,2.339 -7.087,5.031 -10.478,6.094c-6.022,1.887 -18.041,3.071 -23.769,2.147c-3.13,-0.505 -7.502,-2.767 -10.815,-4.709Z" style="fill:#2f3e2b;"/></g><g><path d="M53.607,734.303c0,0 -2.307,15.401 0,20.285c2.307,4.885 8.632,7.233 13.841,9.024c5.829,2.004 24.809,3.61 32.032,4.427c8.974,1.015 24.078,-9.975 24.078,-9.975l0,-13.113c0,0 -69.951,-8.556 -69.951,-10.649Z" style="fill:#172225;"/><path d="M118.918,736.632c-1.212,-1.409 -2.825,-3.102 -4.658,-4.797c-2.785,-2.576 -6.077,-5.156 -9.236,-6.746c-5.237,-2.636 -18.077,-3.597 -21.818,-3.312c-1.682,0.128 -0.626,5.022 -0.626,5.022c0,0 -8.364,-1.799 -12.398,-0.855c-4.707,1.102 -13.599,5.08 -15.844,7.467c-2.228,2.37 1.211,6.573 2.64,8.606c1.33,1.892 4.092,3.065 5.936,3.593c1.65,0.472 5.13,-0.428 5.13,-0.428l-1.226,3.088c0,0 9.373,3.483 14.265,4.393c5.657,1.053 14.432,1.959 19.679,1.924c3.998,-0.027 8.157,-0.497 11.804,-2.138c3.881,-1.746 9.722,-3.424 10.781,-6.06c1.059,-2.636 -2.1,-7.05 -4.43,-9.758Z" style="fill:#2b392c;"/><path d="M73.938,750.72c3.614,-0.583 7.437,-1.264 9.764,-1.861c4.691,-1.203 10.244,-3.347 13.592,-5.13c2.518,-1.341 6.498,-5.57 6.498,-5.57c0,0 7.962,1.95 10.848,4.02c1.708,1.225 4.303,3.837 6.649,6.35c-2.325,1.509 -6.004,2.698 -8.722,3.921c-3.647,1.64 -7.805,2.11 -11.804,2.138c-5.247,0.036 -14.022,-0.871 -19.679,-1.924c-1.96,-0.365 -4.639,-1.142 -7.146,-1.944Z" style="fill:#2f3e2b;"/><path d="M61.171,729.273c3.136,-1.462 6.616,-2.768 9.012,-3.329c4.033,-0.944 12.398,0.855 12.398,0.855c0,0 -1.056,-4.894 0.626,-5.022c3.741,-0.285 16.581,0.676 21.818,3.312c0.401,0.202 0.805,0.42 1.209,0.652c-3.072,2.339 -7.087,5.031 -10.478,6.094c-6.022,1.887 -18.041,3.071 -23.769,2.147c-3.13,-0.505 -7.502,-2.767 -10.815,-4.709Z" style="fill:#2f3e2b;"/></g><path d="M374.066,628.196c3.865,1.219 11.362,4.328 11.362,4.328c0,0 4.456,8.268 2.976,12.174c-1.623,4.283 -8.341,10.01 -12.715,13.527c-4.027,3.238 -8.538,6.227 -13.527,7.575c-10.01,2.705 -46.531,8.657 -46.531,8.657l24.618,3.246c0,0 -13.035,6.004 -19.528,7.132c-3.298,0.573 -19.428,-0.368 -19.428,-0.368c-0.57,-2.615 1.864,-5.23 5.14,-7.845c-2.562,1.008 -5.427,2.746 -9.469,7.304l-2.976,-9.739l-0.271,10.28c0,0 -25.709,-2.398 -37.333,-3.246c-10.794,-0.787 -21.65,-2.889 -32.415,-1.842c-10.903,1.06 -21.816,7.244 -33.005,8.204c-12.084,1.037 -39.276,-4.198 -39.276,-4.198l10.01,-4.058c0,0 -21.741,-0.77 -32.464,-2.435c-13.06,-2.027 -35.201,-5.307 -45.895,-9.729c-11.994,-4.96 -26.067,-20.029 -26.067,-20.029l4.599,10.551c0,0 -10.596,-6.899 -13.527,-10.551c-2.517,-3.137 -4.058,-11.362 -4.058,-11.362l-1.131,9.752c0,0 -8.724,-7.391 -6.16,-14.044c1.213,-3.147 12.946,-5.496 12.946,-5.496l-3.657,-8.643l5.815,5.088c-0.635,-7.454 2.327,-10.927 6.041,-13.842c-1.721,5.168 -1.521,9.677 -0.973,13.9c1.852,-4.195 3.954,-5.794 7.622,-6.697c0,0 -2.692,2.314 -3.364,3.313c-0.514,0.764 -0.668,2.681 -0.668,2.681c16.621,-5.882 37.663,-9.901 58.439,-12.089c0.672,-2.459 -1.059,-6.52 -3.933,-11.343c4.25,2.598 7.854,5.519 9.739,9.299l4.328,-7.304l-0.271,6.763c27.665,-3.353 53.559,-4.049 78.454,-3.246l-1.353,-9.739l4.918,7.723c1.455,-6.479 4.417,-11.273 8.068,-15.298c-2.167,5.044 -3.533,10.425 -3.246,16.502l32.464,2.435l-1.894,-7.304l4.599,4.87c1.3,-4.491 3.647,-7.123 6.763,-8.386c-2.239,3.422 -3.084,6.927 -1.894,10.551c0,0 26.231,1.869 39.227,3.787c13.436,1.984 28.242,4.917 41.391,8.116c12.666,3.081 29.36,8.51 37.505,11.078Z" style="fill:#91ba34;"/><g><path d="M322.67,653.441c-6.52,1.24 -18.278,4.823 -27.551,6.612c-9.645,1.861 -30.317,4.553 -30.317,4.553c-2.864,-1.002 -2.755,-3.137 -1.573,-5.681l-5.304,5.812c0,0 -28.988,3.29 -43.53,3.031c-18.046,-0.321 -47.555,-2.778 -64.745,-4.959c-12.978,-1.646 -28.839,-4.839 -38.395,-8.126c-6.68,-2.298 -18.533,-8.108 -18.941,-11.598c-0.413,-3.536 16.01,-10.857 16.01,-10.857l4.684,-1.929l-2.48,-8.541l4.505,7.198l4.862,-7.198l-1.936,6.081c0,0 18.418,-3.327 27.439,-4.319c10.469,-1.151 35.935,-2.589 35.935,-2.589l-7.714,-3.031c0,0 12.206,0.009 16.983,0.606c3.32,0.415 11.68,2.976 11.68,2.976c0,0 25.338,1.286 32.224,1.378c3.043,0.041 9.092,-0.827 9.092,-0.827l0,-6.337l3.41,5.761l-0.586,-12.222l4.512,11.732l5.061,-8.302l-2.502,9.635l22.614,1.11c4.193,-5.46 9.581,-7.632 15.429,-8.541c-4.503,2.596 -8.038,5.461 -8.816,9.092l26.592,3.877c-0.13,-4.362 -2.212,-6.771 -5.232,-8.243c2.687,0.219 5.374,1.517 8.061,6.799c1.358,-3.767 4.29,-5.436 7.815,-6.313c-2.733,2.811 -3.918,5.428 -2.799,7.758c0,0 17.313,1.493 23.143,2.735c4.154,0.885 8.668,2.513 11.836,4.717c3.045,2.118 9.082,6.84 7.174,8.508c-2.63,2.3 -14.909,6.68 -21.016,8.287c-3.74,0.984 -11.828,0.633 -15.627,1.356Z" style="fill:#b3d543;"/><path d="M155.056,675.643c5.533,0.484 24.36,-1.893 24.36,-1.893c0,0 -11.886,-4.06 -17.418,-4.544c-5.267,-0.461 -14.724,-0.104 -15.881,0.969c-1.157,1.073 5.6,5.176 8.939,5.468Z" style="fill:#b3d543;"/><ellipse cx="289.357" cy="669.504" rx="8.976" ry="1.722" style="fill:#b3d543;"/><ellipse cx="86.727" cy="627.839" rx="18.232" ry="4.6" style="fill:#b3d543;"/></g></g></svg>