<?xml version="1.0" encoding="UTF-8" standalone="no"?><!DOCTYPE svg PUBLIC "-//W3C//DTD SVG 1.1//EN" "http://www.w3.org/Graphics/SVG/1.1/DTD/svg11.dtd"><svg width="100%" height="100%" viewBox="0 0 402 874" version="1.1" xmlns="http://www.w3.org/2000/svg" xmlns:xlink="http://www.w3.org/1999/xlink" xml:space="preserve" xmlns:serif="http://www.serif.com/" style="fill-rule:evenodd;clip-rule:evenodd;stroke-linejoin:round;stroke-miterlimit:2;"><ellipse cx="206.821" cy="633.219" rx="119.142" ry="28.722" style="fill:#6c4624;fill-opacity:0.7;"/><path d="M99.678,546.144l2.684,6.812c0,0 2.147,9.969 3.843,12.791c1.695,2.822 7.123,5.383 7.123,5.383c0.341,8.659 1.197,14.998 2.246,20.47c0,0 -3.347,-0.09 -4.125,0.91c-0.778,1 -0.489,4.013 -0.037,5.308c0.421,1.208 3.615,1.652 3.615,1.652c1.152,12.062 3.236,21.955 5.508,27.298l26.244,2.694l8.425,-0.525l57.701,12.034l2.648,3.124l26.23,9.448l8.497,-6.006l9.971,-7.001l1.991,-2.65l17.468,-8.527c0,0 6.423,1.498 9.043,1.085c3.215,-0.507 6.924,-2.138 9.501,-5.123c2.765,-3.202 5.436,-11.801 5.996,-17.335c0.668,-6.595 0.101,-21.155 0.101,-21.155l1.117,-13.688c0,0 6.547,-4.826 8.063,-8.759c1.547,-4.013 1.222,-15.321 1.222,-15.321c0,0 4.797,-7.386 4.11,-11.363c-0.387,-2.238 -8.818,-8.922 -8.818,-8.922l-1.741,-17.042l-20.178,-39.7l-38.223,1.969l-67.916,-7.874l-5.465,-4.65l-39.174,2.129l-27.051,35.002l-5.086,35.435l-5.532,12.099Z" style="fill:#985a21;"/><path d="M145.653,621.433l-4.69,-10.793c0,0 16.689,4.089 24.146,5.747c8.399,1.868 19.85,4.473 28.138,5.747c7.139,1.097 16.852,3.302 21.586,1.896c3.955,-1.175 8.295,-12.136 8.295,-12.136l17.824,6.304l0.129,3.499l-0.614,29.291l-23.266,-7.895l-3.967,-3.616l-59.115,-15.841l-8.466,-2.204Z" style="fill:#ffdf90;"/><path d="M223.91,616.098l15.32,4.686l-0.541,29.558l-22.168,-7.209l7.389,-27.035Z" style="fill:#e6b680;"/><path d="M242.474,621.144l12.977,-5.046l3.424,23.43l-16.041,10.814l-0.36,-29.197Z" style="fill:#b36d1e;"/><path d="M242.474,594.72l0,21.377l11.881,-4.721l-0.894,-20.582l-10.987,3.926Z" style="fill:#b36d1e;"/><path d="M226.556,591.521l12.674,2.673l0,21.903l-13.366,-4.852l0.692,-19.724Z" style="fill:#e6b680;"/><path d="M117.324,599.469l15.217,0.668c0,0 3.08,10.509 5.459,15.122c2.185,4.237 7.728,12.758 7.728,12.758l-23.502,-2.884c0,0 -4.326,-13.265 -4.902,-25.665Z" style="fill:#e6b680;"/><path d="M115.279,570.935l13.929,2.52c-0.043,5.921 0.976,12.311 2.318,19.001l-14.202,-0.935c0,0 -2.766,-13.233 -2.045,-20.586Z" style="fill:#e6b680;"/><path d="M258.875,626.585l1.873,9.949l17.446,-8.515c5.699,-4.69 6.431,-8.387 6.344,-11.92l-25.663,10.487Z" style="fill:#b36d1e;"/><path d="M292.468,602.714c0,0 -0.281,6.097 -1.014,9.039c-0.919,3.691 -2.929,10.913 -4.502,13.624c-0.981,1.69 -4.937,2.641 -4.937,2.641c0,0 9.575,0.582 12.364,-1.703c3.695,-3.026 5.577,-7.55 7.276,-15.113c1.271,-5.655 1.23,-13.883 1.23,-13.883l-10.416,5.394Z" style="fill:#b36d1e;"/><path d="M294.11,576.588l8.896,-3.446c0,0 -0.377,11.343 -2.322,14.88c-1.776,3.231 -9.343,6.344 -9.343,6.344l2.768,-17.778Z" style="fill:#b36d1e;"/><path d="M243.285,574.265l-0.812,18.44c0,0 52.834,-17.77 64.632,-24.403c4.294,-2.414 5.221,-18.749 5.221,-18.749l-69.041,24.712Z" style="fill:#b17736;"/><path d="M196.748,566.926l44.333,7.168l-0.671,18.611l-49.162,-11.02c0,0 7.028,-2.125 5.499,-14.759Z" style="fill:#e6b680;"/><path d="M136.033,595.125c0,0 0.752,10.924 4.938,13.355c5.351,3.108 24.486,6.126 33.696,7.872c11.154,2.115 30.817,5.768 38.828,4.967c5.13,-0.513 8.738,-13.335 8.738,-13.335l-86.2,-12.859Z" style="fill:#bf7624;"/><path d="M131.708,574.708c0.772,6.71 1.117,11.585 3.498,18.338l87.495,13.561l0.791,-15.008l-35.593,-8.224c0,0 -9.606,8.092 -14.637,9.081c-3.721,0.731 -11.592,0.61 -14.629,-1.662c-3.813,-2.852 -12.531,-14.479 -12.531,-14.479l-14.394,-1.607Z" style="fill:#bf7624;"/><path d="M143.085,556.283c0.417,6.058 2.572,15.137 4.112,18.425c0,0 -30.852,-4.875 -37.818,-8.104c-3.961,-1.836 -5.771,-15.706 -5.771,-15.706c12.339,2.147 25.375,4.497 39.477,5.384Z" style="fill:#e6b680;"/><path d="M142.61,541.71c-0.004,3.673 0.226,7.735 0.76,12.304c0,0 -34.807,-3.193 -42.213,-6.357c-3.894,-1.663 -2.225,-12.624 -2.225,-12.624l43.678,6.677Z" style="fill:#e0bb31;"/><path d="M256.896,611.269l1.166,10.109c0,0 16.53,-5.132 21.583,-9.602c4.82,-4.264 8.735,-17.219 8.735,-17.219c-9.745,6.569 -20.394,11.934 -31.484,16.711Z" style="fill:#834805;"/><path d="M255.947,589.947l0.949,19.782c0,0 24.321,-11.156 30.019,-16.631c4.065,-3.906 4.173,-16.221 4.173,-16.221l-35.142,13.07Z" style="fill:#834805;"/><path d="M113.093,597.955c5.058,0.216 17.954,0.833 20.788,0.735c1.72,-0.06 1.509,-4.861 -0.21,-4.935c-3.491,-0.15 -16.299,-0.935 -20.368,-1.05c-1.723,-0.049 -1.932,5.176 -0.21,5.25Z" style="fill:#ffdf90;"/><path d="M258.159,622.534l0.47,3.024l16.328,-6.787l11.087,-4.502c0,0 -0.318,4.955 -1.075,6.857c-0.829,2.083 -3.897,5.641 -3.897,5.641c0,0 3.627,-0.988 4.838,-2.688c1.389,-1.949 2.718,-5.88 3.494,-9.004c0.918,-3.696 2.016,-13.17 2.016,-13.17l11.154,-6.249l-0.403,-6.454c-2.733,2.872 -7.705,6.159 -12.767,7.597c0,0 -1.608,5.083 -2.486,7.011c-1.198,2.632 -4.24,7.854 -7.324,9.855c-4.972,3.225 -21.435,8.87 -21.435,8.87Z" style="fill:#a5672e;"/><path d="M143.047,615.154l73.473,15.002l-3.244,9.372l-64.212,-13.208c0,0 -3.002,-2.383 -6.017,-11.166Z" style="fill:#e6b680;"/><path d="M128.67,532.416l11.549,0.656c1.127,-3.084 3.394,-5.712 9.776,-6.693c0,0 12.395,1.36 25.994,3c11.066,1.334 23.299,2.826 27.308,4.15c3.482,1.151 2.658,7.03 0.31,10.567l16.667,1.654c-0.118,-6.889 -0.057,-13.243 0.105,-19.292l-43.18,-7.559l-46.634,-7.087c-3.166,7.545 -2.232,14.811 -1.896,20.605Z" style="fill:#bf7624;"/><path d="M131.78,508.986c0,0 3.849,-15.853 6.885,-20.808c2.511,-4.099 7.787,-9.183 7.787,-9.183l83.65,11.803c-6.654,12.874 -9.586,22.813 -9.722,33.018l-88.6,-14.831Z" style="fill:#de9747;"/><path d="M148.573,476.307c4.079,-4.188 8.434,-7.89 19.862,-9.628l77.177,8.44c-4.77,2.915 -9.84,6.686 -14.26,12.753l-82.779,-11.565Z" style="fill:#dbae7b;"/><path d="M196.814,564.722l47.268,7.187l7.524,-13.257l2.297,-37.239l40.069,-47.09c0,0 -14.225,-5.275 -21.333,-5.958c-6.529,-0.628 -16.958,2.175 -22.159,5.721c-6.659,4.539 -12.979,9.699 -17.902,17.717c-4.423,7.202 -7.566,18.536 -9.035,26.859c-1.558,8.831 -1.136,28.996 -1.136,28.996c0,0 -17.364,-2.204 -21.406,-1.964c-1.476,0.087 -2.528,1.958 -2.846,3.401c-0.698,3.172 -1.34,15.628 -1.34,15.628Z" style="fill:#f3db81;"/><g><path d="M98.991,535.033l5.895,-8.076c0,0 0.979,-17.407 2.352,-24.274c1.171,-5.858 3.028,-11.447 5.887,-16.927c2.845,-5.453 6.719,-12.145 11.266,-15.954c5.336,-4.469 14.38,-10.039 20.617,-12.304c6.237,-2.264 10.783,-1.585 17.201,-0.1c4.928,1.14 14.611,4.101 14.611,4.101c0,0 -16.896,0.854 -24.095,5.071c-7.22,4.229 -14.85,13.48 -19.225,20.305c-4.214,6.575 -5.633,14.667 -7.023,22.352c-1.453,8.026 -1.692,25.805 -1.692,25.805l17.408,2.268c0,0 0.314,-4.078 1.849,-5.581c1.559,-1.526 4.773,-2.946 4.773,-2.946l52.185,6.258l-8.193,12.624c0,0 -4.655,27.617 -8.111,34.807c-2.06,4.286 -9.121,6.943 -12.625,8.331c-2.603,1.031 -5.831,1.114 -8.399,0c-3.04,-1.319 -6.963,-4.841 -9.843,-7.911c-2.953,-3.148 -6.131,-6.993 -7.874,-10.974c-1.743,-3.981 -2.585,-12.702 -2.585,-12.702l-1.26,-16.89l-43.119,-7.286Z" style="fill:#f3db81;"/><path d="M146.725,535.339l40.479,5.134c0,0 -0.814,13.609 -1.482,19.653c-0.718,6.5 -0.447,15.854 -2.825,20.515c-2.068,4.054 -10.093,7.109 -14.461,7.448c-4.368,0.339 -8.708,-2.355 -11.746,-5.414c-3.305,-3.328 -6.816,-9.119 -8.477,-13.896c-1.558,-4.482 -2.332,-11.58 -2.539,-17.205c-0.204,-5.527 1.05,-16.236 1.05,-16.236Z" style="fill:#ebca4d;"/><path d="M160.111,574.706l9.423,0.97l-1.651,-3.746l-0.054,-8.347c0,0 3.131,-2.28 3.915,-4.124c0.816,-1.92 1.37,-5.244 0.981,-7.396c-0.389,-2.152 -1.943,-4.454 -3.315,-5.519c-1.372,-1.065 -3.426,-1.661 -4.917,-0.87c-1.491,0.791 -3.332,3.749 -4.029,5.615c-0.641,1.718 -0.533,3.791 -0.15,5.582c0.425,1.987 2.699,6.342 2.699,6.342l-1.229,8.782l-1.673,2.71Z" style="fill:#512c1a;"/></g><path d="M201,535.033c1.705,-0.044 2.213,3.153 2.213,4.614c0,1.461 -1.243,2.92 -2.213,4.153c-1.051,1.335 -3.559,2.06 -4.093,3.858c-1.118,3.768 -1.521,14.101 -1.88,18.225c-0.189,2.168 -0.074,4.564 -0.274,6.523c-0.179,1.761 -0.931,4.922 -2.183,6.174c-1.512,1.512 -5.628,2.916 -6.576,1.43c-0.948,-1.486 0.853,-8.422 1.209,-12.237c0.46,-4.933 1.454,-11.403 1.972,-16.197c0.385,-3.563 0.498,-10.781 0.498,-10.781c0,0 9.332,-5.71 11.326,-5.761Z" style="fill:#b37449;"/><path d="M113.438,492.525l13.331,1.057c-3.802,10.052 -5.682,23.204 -5.383,40.946l-14.149,-2.304c0.203,-18.825 2.41,-31.64 6.202,-39.699Z" style="fill:#e0bb31;"/><path d="M116.168,485.912l13.185,0.668c0,0 8.084,-11.917 13.32,-16.178c4.832,-3.932 18.099,-9.39 18.099,-9.39c0,0 -9.2,-3.132 -13.272,-1.77c-5.371,1.797 -11.127,5.436 -16.852,10.056c-3.944,3.183 -14.48,16.613 -14.48,16.613Z" style="fill:#eecc4d;"/><path d="M201,550.833l25.859,3.18c-0.238,-12.603 -0.912,-27.737 3.999,-47.418l15.226,2.172c-6.409,40.064 -5.989,50.326 -5.287,59.356l-39.797,-5.023l0,-12.267Z" style="fill:#e0bb31;"/><path d="M233.209,499.348l14.682,2.02c0,0 9.57,-13.143 14.515,-18.312c4.165,-4.354 15.244,-10.702 15.244,-10.702c-17.691,-2.838 -32.874,4.896 -44.441,26.994Z" style="fill:#eecc4d;"/><path d="M244.126,571.909c0,0 54.567,-18.709 67.055,-24.253c3.448,-1.53 7.942,-6.784 7.669,-9.829c-0.492,-5.5 -4.88,-11.073 -4.88,-11.073c0,0 -0.539,-12.824 -1.969,-18.661c-1.88,-7.676 -5.297,-21.504 -9.31,-27.396c-3.147,-4.621 -10.007,-7.521 -14.764,-7.958c-4.757,-0.437 -9.832,2.389 -13.78,5.334c-4.976,3.711 -12.155,10.211 -16.077,16.934c-4.238,7.264 -7.477,17.425 -9.351,26.652c-2.215,10.903 -3.582,24.65 -4.347,33.025c-0.442,4.835 -0.246,17.225 -0.246,17.225Z" style="fill:#b17736;"/><path d="M304.377,528.998c0.443,1.993 0.545,4.326 0.44,6.866l-46.016,15.014c0.028,-2.895 0.231,-5.529 0.505,-8.057l45.071,-13.823Z" style="fill:#a5672e;"/><path d="M258.802,547.657l46.016,-15.912c0,0 -0.854,-14.571 -1.846,-20.028c-0.796,-4.381 -2.358,-9.399 -4.101,-12.714c-1.487,-2.829 -3.285,-6.295 -6.357,-7.177c-3.333,-0.957 -9.69,-0.864 -13.641,1.435c-4.17,2.427 -8.564,8.063 -11.376,13.124c-3.229,5.81 -5.717,13.677 -6.947,20.555c-1.147,6.413 -1.747,20.717 -1.747,20.717Z" style="fill:#834805;"/><path d="M263.305,524.196c-1.323,7.349 -2.697,15.405 -2.635,20.588c0,0 25.886,-6.967 30.889,-10.904c3.459,-2.722 0.264,-16.026 0.264,-16.026l-28.518,6.342Z" style="fill:#b36d1e;"/><path d="M275.775,498.366c-7.064,6.516 -10.08,16.16 -12.244,24.425c7.575,-1.467 17.59,-3.737 27.86,-6.044c-2.344,-6.411 -9.072,-13.72 -15.616,-18.381Z" style="fill:#b36d1e;"/><path d="M284.176,503.252c2.472,2.979 5.933,6.795 8.12,12.072c2.187,5.277 2.103,17.779 2.103,17.779l9.018,-2.999c0,0 -0.8,-15.578 -2.632,-21.263c-1.898,-5.889 -3.207,-9.961 -6.504,-13.018c-6.36,-5.897 -13.738,-1.358 -13.738,-1.358l-3.081,2.983c0,0 4.825,3.527 6.714,5.803Z" style="fill:#b36d1e;"/><path d="M135.174,579.032l11.369,1.498c0,0 6.186,8.72 10.041,10.991c3.855,2.271 11.067,4.127 15.41,3.604c5.593,-0.673 15.614,-7.9 15.614,-7.9l30.59,6.701l0.134,9.882c-26.024,-3.101 -52.464,-6.803 -80.139,-12.288l-3.02,-12.489Z" style="fill:#e49b49;"/><path d="M140.442,598.29l79.367,11.913c0,0 -3.979,8.164 -7.316,8.712c-5.988,0.982 -18.144,-1.217 -28.613,-2.818c-11.242,-1.719 -31.172,-4.85 -38.411,-7.818c-3.628,-1.487 -5.027,-9.989 -5.027,-9.989Z" style="fill:#e49b49;"/><path d="M151.817,456.034c9.679,0.72 17.329,3.034 24.989,5.34l5.088,4.729l68.572,8.141c5.047,-3.211 11.687,-5.376 20.72,-5.968c6.684,1.1 18.18,4.418 18.18,4.418c0,0 -6.67,-0.483 -10.361,2.025c-11.272,7.657 -18.809,16.89 -19.062,18.153l-143.2,-13.848c2.674,-5.231 6.508,-8.733 12.669,-12.904c4.006,-2.712 9.072,-6.632 15.179,-8.335c1.949,-0.543 5.068,-1.352 7.225,-1.751Z" style="fill:#fff;fill-opacity:0.31;"/></svg>