<?xml version="1.0" encoding="UTF-8" standalone="no"?><!DOCTYPE svg PUBLIC "-//W3C//DTD SVG 1.1//EN" "http://www.w3.org/Graphics/SVG/1.1/DTD/svg11.dtd"><svg width="100%" height="100%" viewBox="0 0 402 874" version="1.1" xmlns="http://www.w3.org/2000/svg" xmlns:xlink="http://www.w3.org/1999/xlink" xml:space="preserve" xmlns:serif="http://www.serif.com/" style="fill-rule:evenodd;clip-rule:evenodd;stroke-linecap:round;stroke-linejoin:round;stroke-miterlimit:1.5;"><ellipse id="Shadow" cx="209.441" cy="642.876" rx="79.902" ry="16.267" style="fill:#616b2e;"/><g id="Glove"><path d="M159.663,511.998l-2.979,3.655l0.795,8.501l4.023,5.959l6.783,1.112l5.403,-4.29l0.199,-15.255l0.516,-9.415l-10.606,2.145l-4.132,7.588Z" style="fill:#5b553b;"/><path d="M232.501,503.145l-0.372,13.833l2.545,11.241l7.821,1.862l6.89,1.241l3.848,-4.035l1.117,-11.856l-2.622,-3.973l-5.323,-0.931l-7.014,-7.311l-6.89,-0.073Z" style="fill:#5b553b;"/><path d="M167.855,505.551l4.171,-0.546l0.497,20.938l-3.476,3.443c0,0 -4.898,-5.978 -5.906,-8.856c-1.008,-2.878 -0.14,-8.413 -0.14,-8.413c-2.227,5.314 -1.444,11.176 3.613,17.814c0,0 -4.05,-0.017 -4.606,-0.362c-1.399,-0.869 -3.175,-2.893 -3.786,-4.852c-0.656,-2.1 -0.248,-5.793 -0.149,-7.747c0.068,-1.346 0.745,-3.973 0.745,-3.973l-1.723,1.941c0,0 -0.91,3.214 -0.976,4.472c-0.086,1.635 -0.033,4.639 0.69,6.226c0.723,1.587 2.128,3.327 3.617,4.414c1.49,1.087 5.194,2.413 5.194,2.413c1.355,0.339 2.587,0.144 3.625,-0.894l4.966,-5.015l0.695,-23.338l-4.122,0l-2.93,2.333Z" style="fill:#48442f;"/><path d="M233.414,503.722c0,0 -0.204,6.945 -0.03,10.752c0.105,2.289 1.073,12.09 1.073,12.09c2.619,1.525 5.005,2.057 7.2,1.781c0,0 2.758,-3.071 3.724,-4.872c0.835,-1.556 1.378,-4.167 1.627,-6.098c0.233,-1.816 -0.137,-5.49 -0.137,-5.49c0,0 1.223,3.823 1.223,5.552c0,1.782 -0.559,3.511 -1.223,5.143c-0.767,1.885 -3.377,6.169 -3.377,6.169c0,0 1.089,1.415 1.895,1.579c1.018,0.207 3.043,0.447 4.213,-0.338c1.232,-0.826 2.647,-2.826 3.178,-4.618c0.728,-2.458 1.192,-10.13 1.192,-10.13l2.155,3.367c0.03,3.781 -0.303,7.336 -2.503,9.736l-3.675,4.724l-4.171,0.496l-13.507,-5.22l-1.986,-8.733l0.447,-15.642l2.681,-0.248Z" style="fill:#48442f;"/><path d="M163.906,519.275c0,0 1.832,-5.903 2.987,-7.969c0.249,-0.446 3.798,-1.983 3.798,-1.983l0.143,-2.439c0,0 -3.033,0.523 -3.915,0.898c-0.591,0.251 -1.053,0.794 -1.376,1.349c-0.483,0.83 -1.12,1.777 -1.525,3.63c-0.424,1.943 -0.112,6.513 -0.112,6.513Z" style="fill:#6d674b;"/><path d="M161.501,513.686l-2.01,1.308c0,0 -0.897,3.488 -0.961,4.985c-0.051,1.187 0.593,4.368 0.593,4.368c0,0 0.68,-3.84 0.99,-5.703c0.282,-1.693 1.388,-4.958 1.388,-4.958Z" style="fill:#6d674b;"/><path d="M234.861,505.569l-0.186,3.524c0,0 3.832,-0.177 5.338,0.807c1.552,1.014 3.073,3.714 3.973,5.276c0.722,1.254 1.428,4.099 1.428,4.099c0,0 0.323,-3.951 -0.124,-5.589c-0.461,-1.687 -1.461,-3.186 -2.64,-4.531c-1.092,-1.245 -2.559,-2.575 -3.939,-3.028c-1.199,-0.393 -3.848,-0.559 -3.848,-0.559Z" style="fill:#6d674b;"/><path d="M248.582,513.442l1.673,0.244c0,0 1.044,0.963 1.393,1.63c0.362,0.692 0.825,1.301 0.861,2.037c0.057,1.177 -0.516,5.023 -0.516,5.023c0,0 -0.259,-3.101 -0.807,-4.535c-0.568,-1.489 -2.604,-4.399 -2.604,-4.399Z" style="fill:#6d674b;"/></g><g id="Shoe"><g><path d="M155.855,609.762l-0.483,7.017c-1.14,5.843 -4.171,9.984 -7.439,13.912l0.698,4.264l10.181,5.019l16.248,-2.3l5.847,-10.202l-0.776,-12.531l-16.41,-7.526l-7.867,2.348Z" style="fill:#8f5940;"/><path d="M152.617,629.876l-8.421,10.099l-4.79,-2.227c0,0 0.03,-3.095 1.02,-4.422c1.21,-1.62 6.239,-5.301 6.239,-5.301l3.211,0.806l2.74,1.046Z" style="fill:#a46c51;"/><path d="M157.013,614.331c0,0 6.042,-0.21 8.241,0.248c1.491,0.311 4.491,1.476 5.316,2.29c0.622,0.614 -0.021,2.216 -0.519,2.872c-0.498,0.655 -2.469,1.06 -2.469,1.06c0,0 0.763,2.066 0.524,2.956c-0.238,0.89 -0.853,1.667 -1.405,2.048c-0.374,0.258 -1.908,0.24 -1.908,0.24c0,0 0.501,0.816 0.501,1.271c0,0.604 -0.151,1.761 -0.501,2.352c-0.338,0.571 -1.124,0.961 -1.596,1.192c-0.376,0.183 -1.728,0.282 -1.728,0.282c0,0 0.321,1.337 0.039,1.977c-0.233,0.527 -0.255,0.994 -0.94,1.405c-0.428,0.257 -1.105,0.795 -2.008,0.054c-1.277,-1.047 -3.311,-3.872 -5.942,-4.625l-5.819,-1.93l3.432,-2.932l3.337,-3.242l1.096,-2.86l0.627,-3.146l0,-0.959l1.723,-0.553Z" style="fill:#583525;"/><path d="M171.495,614.817c0,0 5.462,5.785 6.108,8.119c0.559,2.022 -0.805,4.349 -2.235,5.884c-2.334,2.508 -8.69,7.928 -11.769,9.162c-2.144,0.86 -4.246,-0.998 -6.145,-1.932c-1.815,-0.892 -3.941,-3.729 -5.562,-4.353c-2.725,-1.048 -4.801,-0.872 -6.378,-0.231c-1.577,0.641 -3.748,4.847 -3.82,6.284c-0.073,1.438 3.879,2.838 3.879,2.838c0,0 5.736,1.194 7.043,1.213c3.377,0.05 6.739,0.135 10.047,-0.378c2.297,-0.356 9.824,-3.286 9.824,-3.286c6.936,-0.087 11.794,-0.658 13.263,-2.652c-0.406,-8.158 -0.811,-16.315 -0.252,-22.382l-14.003,1.713Z" style="fill:#7e4c35;"/><path d="M157.165,610.59l-0.153,2.514c0,0 5.675,-0.44 7.78,0.476c0,0 -2.715,-3.356 -7.627,-2.99Z" style="fill:#a46c51;"/><path d="M171.586,620.947c1.277,-0.927 3.385,2.512 3.473,3.688c0.087,1.176 -2.117,3.566 -3.534,5.056c-1.802,1.895 -5.777,5.751 -7.279,6.315c-0.837,0.315 -3.132,-1.096 -2.402,-1.77c4.714,-4.354 7.539,-11.688 9.741,-13.288Z" style="fill:#a46c51;"/><path d="M155.903,610.674c0,0 3.324,-0.052 4.515,0.214c1.391,0.31 3.344,1.688 4.926,2.217c2.054,0.686 6.545,1.78 6.545,1.78l-7.078,-4.973l-6.407,-1.648l-2.715,0.488l0.214,1.922Z" style="fill:#583525;"/><path d="M185.75,635.771l-0.227,3.222l-0.635,1.733l-2.368,1.074l-2.904,0.586l-1.684,0.073l-2.734,-0.293l-2.075,-0.391l-4.501,2.291l-4.383,1.294l-5.816,0l-7.31,-0.436l-6.706,-0.89l-3.591,-1.525l-0.953,-1.176l-0.606,-2.002l0,-1.462l6.771,2.797l5.53,0.826l6.324,0.159l6.909,-0.858l5.74,-1.78l2.034,-1.017l5.18,-0.159l3.464,-0.35l1.97,-0.445l2.569,-1.272" style="fill:#3a211a;"/><circle cx="159.115" cy="632.596" r="1.822"/><circle cx="162.899" cy="628.548" r="1.822"/><circle cx="165.803" cy="623.531" r="1.822"/><circle cx="168.18" cy="618.075" r="1.822"/><path d="M160.2,631.478c0,0 -4.984,-5.083 -11.986,-4.752" style="fill:none;stroke:#000;stroke-width:0.57px;"/><path d="M163.982,627.429c0,0 -4.409,-5.525 -11.783,-4.012" style="fill:none;stroke:#000;stroke-width:0.57px;"/><path d="M166.739,622.324c0,0 -3.995,-4.543 -12.188,-3.128" style="fill:none;stroke:#000;stroke-width:0.57px;"/><path d="M168.623,616.554c0,0 -3.896,-1.746 -6.119,-2.025c-2.133,-0.267 -4.816,-0.362 -7.214,0.355" style="fill:none;stroke:#000;stroke-width:0.57px;"/><path d="M167.335,619.453c0,0 -4,-3.123 -12.045,-2.154" style="fill:none;stroke:#000;stroke-width:0.57px;"/><path d="M164.899,624.598c0,0 -3.907,-3.789 -11.207,-2.986" style="fill:none;stroke:#000;stroke-width:0.57px;"/><path d="M161.908,629.734c0,0 -3.489,-4.892 -11.608,-4.381" style="fill:none;stroke:#000;stroke-width:0.57px;"/><path d="M158.09,633.767c0,0 -4.364,-5.445 -11.664,-5.37" style="fill:none;stroke:#000;stroke-width:0.57px;"/></g><g><path d="M234.043,615.587l0.78,5.848l1.144,3.585l1.703,1.856l1.831,2.771l0.915,2.415l0.025,4.456l0.057,2.968l2.547,2.077l3.178,2.39l2.949,1.238l6.204,0.643l6.331,-0.178l3.178,-0.465l2.15,-1.289l2.605,-2.593l1.983,-2.274l-0.814,-3.726l-1.856,-4.653l-1.703,-4.678l-1.242,-5.288l-0.843,-5.009l-1.017,-3.915l-1.17,-3.026l-28.936,6.847Z" style="fill:#8f5940;"/><path d="M243.316,619.409c1.366,-0.439 4.642,-1.863 7.17,-2.242c2.91,-0.436 7.718,-1.024 9.642,-0.426c0.68,0.211 1.432,1.109 1.575,1.819c0.143,0.71 -0.719,2.443 -0.719,2.443c0,0 1.542,1.106 1.793,1.793c0.251,0.688 -0.286,2.332 -0.286,2.332c0.084,-0.336 2.178,1.438 2.184,3.047c0.003,0.878 -1.032,2.134 -1.032,2.134c0,0 1.42,0.252 2.123,1.319c0.513,0.779 0.087,2.039 -0.172,2.349c-0.614,0.735 -4.246,0.743 -4.246,0.743l-9.699,1.067c0,0 -4.014,1.061 -4.899,0.625c-0.885,-0.437 -0.412,-3.246 -0.412,-3.246c-1.709,-1.431 -2.176,-3.031 -0.972,-4.859c-0.568,-0.373 -1.561,-1.339 -1.71,-2.103c-0.149,-0.764 0.816,-2.482 0.816,-2.482c0,0 -1.279,-0.262 -1.705,-0.994c-0.707,-1.217 -0.369,-3.026 0.548,-3.32Z" style="fill:#583525;"/><path d="M248.4,642.138c0,0 2.914,-2.804 5.212,-3.414c2.522,-0.669 8.012,-1.352 9.968,-0.899c1.452,0.336 3.456,3.643 3.456,3.643c0,0 -2.132,1.36 -5.222,2.151c-2.254,0.577 -5.344,0.712 -6.884,0.484c-2.976,-0.441 -6.529,-1.964 -6.529,-1.964Z" style="fill:#a46c51;"/><path d="M237.71,621.092c0,0 -0.263,1.321 0.355,3.942c0.249,1.054 2.537,3.663 3.129,5.77c0.599,2.132 0.466,7.022 0.466,7.022l3.706,-0.965c0,0 -1.664,-4.888 -2.349,-7.376c-0.709,-2.578 -1.31,-8.938 -1.31,-8.938l-3.997,0.546Z" style="fill:#a46c51;"/><path d="M240.499,639.257l0.445,6.642c0,0 0.874,2.119 1.462,2.765c0.527,0.579 1.503,1.16 2.258,1.367c1.197,0.328 5.338,1.017 5.338,1.017l6.865,0.3l5.021,0l4.602,-1.38l4.043,-2.574l1.176,-2.034l0.257,-2.479l-0.543,-3.845l-2.447,2.797l-2.485,2.511l-3.33,1.176l-6.229,0.445l-4.418,-0.009l-3.305,-0.658l-4.259,-2.136l-2.987,-2.667l-1.462,-1.235Z" style="fill:#3a211a;"/><path d="M244.473,617.24l1.443,-1.639l1.837,-0.795l3.873,-0.099l7.101,-1.937l0.745,2.781l-7.697,0.397l-3.326,0.447l-3.976,0.844Z" style="fill:#a46c51;"/><g><circle cx="244.644" cy="621.463" r="1.803"/><circle cx="259.314" cy="619.029" r="1.803"/><circle cx="262.358" cy="628.145" r="1.803"/><circle cx="260.555" cy="623.48" r="1.803"/><circle cx="247.044" cy="630.282" r="1.803"/><circle cx="245.853" cy="625.658" r="1.803"/><circle cx="248.441" cy="634.758" r="1.803"/><circle cx="263.78" cy="632.955" r="1.803"/><path d="M248.073,633.305c0,0 5.139,-0.915 7.73,-1.219c2.618,-0.308 7.976,-0.628 7.976,-0.628" style="fill:none;stroke:#000;stroke-width:0.57px;"/><path d="M248.848,636.226c0,0 5.365,-0.926 7.917,-1.222c2.466,-0.285 7.397,-0.551 7.397,-0.551" style="fill:none;stroke:#000;stroke-width:0.57px;"/><path d="M246.699,628.84c0,0 5.469,-1.013 8.066,-1.379c2.496,-0.351 7.516,-0.814 7.516,-0.814" style="fill:none;stroke:#000;stroke-width:0.57px;"/><path d="M247.044,631.812c0,0 5.912,-1.169 8.537,-1.53c2.422,-0.333 7.215,-0.639 7.215,-0.639" style="fill:none;stroke:#000;stroke-width:0.57px;"/><path d="M245.455,624.221c0,0 5.022,-1.183 7.549,-1.56c2.52,-0.376 7.612,-0.701 7.612,-0.701" style="fill:none;stroke:#000;stroke-width:0.57px;"/><path d="M246.15,627.095c0,0 5.33,-1.074 7.825,-1.437c2.369,-0.345 7.143,-0.741 7.143,-0.741" style="fill:none;stroke:#000;stroke-width:0.57px;"/><path d="M244.202,620.054c4.958,-1.478 9.991,-2.356 15.113,-2.532" style="fill:none;stroke:#000;stroke-width:0.57px;"/><path d="M244.918,622.966c0,0 5.099,-1.39 7.581,-1.807c2.406,-0.404 7.309,-0.693 7.309,-0.693" style="fill:none;stroke:#000;stroke-width:0.57px;"/><path d="M271.487,638.724c0,0 -3.675,5.534 -5.904,6.257c-3.766,1.222 -11.606,1.212 -16.214,0.417c-3.557,-0.613 -8.879,-6.197 -8.879,-6.197" style="fill:none;stroke:#000;stroke-width:0.57px;"/></g></g></g><g id="Pants"><path d="M238.249,544.573l18.868,-1.982l1.786,18.054l-5.591,9.473l3.96,4.789l2.64,2.976l0,5.125l4.038,7.333l-2.64,6.954l-10.327,10.249l-20.499,-1.864l-15.607,-19.722l-10.793,-3.339l-12.035,12.812l-6.367,8.463l0.155,4.348l-5.823,4.271l-7.92,1.009l-7.299,-3.184l-5.202,-3.494l-3.96,-14.132l-1.503,-11.16l0.7,-6.075l6.138,-4.93l-3.848,-1.876l-1.209,-1.018l-0.477,-1.908l1.081,-5.566l0.413,-3.053l-2.735,-1.717l-0.636,-1.717l-0.159,-3.435l0.795,-2.502l1.94,-1.95l3.912,-2.703l2.385,-0.795l3.53,0.891l55.294,1.02l16.994,0.355Z" style="fill:#554831;"/><g><path d="M155.973,592.461c0,0 4.527,7.192 7.656,8.887c3.528,1.911 15.901,1.442 15.901,1.442c0,0 -7.12,4.072 -10.419,4.709c-3.277,0.633 -9.827,-1.911 -9.827,-1.911c0,0 5.37,4.072 8.168,5.187c2.709,1.079 5.818,2.298 8.62,1.501c2.801,-0.796 7.416,-4.163 8.189,-6.278c0.773,-2.116 -3.207,-4.026 -3.207,-4.026l13.672,-15.946l-14.695,-1.183l11.329,-4.231l-5.323,-6.62c0,1.035 19.299,6.103 25.232,7.684c7.739,2.063 19.955,12.375 19.955,12.375l-7.516,-1.838l8.053,12.284c0,0 8.718,0.222 11.835,-0.62c2.629,-0.71 6.864,-4.43 6.864,-4.43l11.452,-3.196l2.935,6.08l-1.887,7.268l-7.395,3.215l-7.251,0.71l-2.118,0.601c0,0 -3.523,3.152 -5.05,3.571c-1.827,0.501 -5.913,-0.566 -5.913,-0.566l-6.784,-2.061c-1.73,-0.501 -2.297,-1.933 -2.776,-3.435l-0.63,-4.923l-12.412,-16.993l-4.95,-4.8l-2.773,2.177l-14.955,13.638l-2.236,2.385l0.261,1.789l-0.485,6.075l-4.286,2.572l-10.138,0.894l-3.839,-0.335l-4.1,-2.944l-2.273,-1.304l-4.1,-0.373l-3.243,0.224l-4.398,-6.932c-0.52,-0.931 -0.253,-2.212 0.373,-3.652l1.901,-3.503l2.583,-3.163Z" style="fill:#4d412b;"/><g><path d="M167.452,571.188c4.222,1.389 15.062,2.906 18.712,1.788c3.067,-0.939 2.376,-8.322 2.376,-8.322l3.611,-0.118c0.495,0.386 1.484,2.184 1.484,2.184c0,0 7.803,0.484 12.17,0.348l2.952,-1.775l5.921,0.708l2.77,7.988c10.022,-1.04 19.817,-1.939 28.844,-2.357l-1.19,3.276l9.414,-3.922l-0.417,-1.685l-4.681,-1.163l-10.884,0.209l-18.604,1.729l-2.752,-8.643l-9.334,-0.364l-21.312,-1.674l-6.697,2.111l-11.429,3.349l-0.953,1.049l0,5.284Z" style="fill:#4d412b;"/><path d="M164.9,544.289c0,0 -2.477,-0.285 -3.494,0.291c-1.177,0.667 -2.839,2.293 -3.567,3.712c-0.728,1.419 -1.276,3.919 -0.801,4.804c0.476,0.886 2.996,1.001 2.996,1.001c0,0 -1.186,3.668 -1.467,5.297c-0.254,1.472 -1.344,4.605 -1.296,5.898c0.037,0.981 0.299,1.989 0.962,2.659c0.834,0.842 4.041,2.394 4.041,2.394l3.072,-1.737l1.737,-3.244l-0.821,-5.438l-0.725,-6.087l0.211,-8.644l-0.849,-0.907Z" style="fill:#4d412b;"/><path d="M164.382,572.976l-3.003,1.932l-6.261,6.088l-1.998,2.803l-1.193,3.578c0,0 -0.715,2.531 -0.567,3.533c0.169,1.138 1.58,3.295 1.58,3.295l4.383,-4.86l4.737,-9.875l2.897,-5.358l-0.576,-1.136Z" style="fill:#4d412b;"/><path d="M160.782,570.88l-2.548,7.294l4.101,-3.787l4.264,-2.415l0.854,-1.282l0,-5.397l-1.483,1.908l-2.322,2.892l-2.865,0.786Z" style="fill:#4d412b;"/></g></g><g><path d="M244.129,547.367c2.583,-0.904 5.304,-1.12 8.153,-0.699c1.843,3.601 2.849,6.281 3.367,8.424l-5.929,0.661c0,0 -3.805,-2.407 -5.591,-8.386Z" style="fill:#5e5036;"/><path d="M241.128,554.958l1.703,10.193l7.587,-0.081c2.181,-0.961 3.648,-2.706 4.503,-5.125c0,0 -6.553,0.055 -8.852,-0.776c-2.035,-0.736 -4.941,-4.212 -4.941,-4.212Z" style="fill:#5e5036;"/><path d="M244.12,578.741l9.042,-4.402c0,0 2.718,3.276 3.121,4.402c0.351,0.978 -0.326,3.099 -0.326,3.099l-3.68,1.296l-5.497,-0.737l-2.659,-3.658Z" style="fill:#5e5036;"/><path d="M251.205,588.456l3.261,0.047l4.472,-2.469c0,0 1.6,2.593 1.77,3.867c0.17,1.271 -0.745,3.774 -0.745,3.774l-6.755,2.235l-2.003,-7.453Z" style="fill:#5e5036;"/><path d="M242.586,583.89c0,0 1.594,1.255 2.003,2.143c0.839,1.817 3.028,8.759 3.028,8.759c0,0 -2.285,-1.907 -2.888,-3.215c-0.839,-1.817 -2.143,-7.687 -2.143,-7.687Z" style="fill:#5e5036;"/><path d="M170.112,578.724c0,0 -7.434,8.195 -6.64,11.054c0.794,2.859 7.903,6.443 11.404,6.099c3.501,-0.344 9.6,-8.161 9.6,-8.161l-8.127,-2.519l8.515,-4.955c0,0 -12.812,0.847 -14.753,-1.518Z" style="fill:#5e5036;"/><path d="M192.752,568.916l3.773,1.697l7.96,0.23l2.596,-1.179c0,0 3.204,-0.314 5.16,0.056l1.952,10.635l-21.904,-6.675l0.462,-4.763Z" style="fill:#5e5036;"/><path d="M223.797,584.589l11.857,-5.851l8.466,21.053c-3.316,2.469 -5.975,2.713 -10.326,1.249l-2.426,-5.131l3.566,-1.009l-11.136,-10.31Z" style="fill:#5e5036;"/><path d="M180.933,604.584c2.123,-0.425 0.493,2.954 -2.112,5.28c-2.308,2.061 -10.498,0 -10.498,0c0,0 6.036,-1.232 7.827,-1.926c1.442,-0.559 4.783,-3.354 4.783,-3.354Z" style="fill:#5e5036;"/></g><g><path d="M158.107,602.339c0,0 1.737,2.316 3.022,2.801c1.757,0.663 4.996,1.457 7.518,1.179c2.678,-0.295 8.55,-2.948 8.55,-2.948c0,0 -5.379,1.155 -7.886,1.253c-2.395,0.094 -5.292,-0.283 -7.159,-0.663c-1.423,-0.29 -4.044,-1.621 -4.044,-1.621Z" style="fill:#3d301f;"/><path d="M185.069,584.316l14.354,-0.276l-15.39,16.284l17.965,-16.814l5.583,1.557l-4.186,-2.117l-10.717,-4.226l7.474,4.196l-15.083,1.396Z" style="fill:#3d301f;"/><path d="M209.814,584.176c0,0 7.88,2.503 11.089,3.962c2.241,1.019 8.166,4.791 8.166,4.791c-3.509,-1.665 -7.037,-3.142 -10.687,-3.404l12.53,16.795l-14.925,-18.182l3.962,0.553l-10.134,-4.514Z" style="fill:#3d301f;"/><path d="M233.423,608.457c0,0 6.332,1.296 9.496,0.964c3.397,-0.356 10.887,-3.102 10.887,-3.102c0,0 -7.626,1.867 -11.024,2.223c-3.103,0.326 -9.36,-0.085 -9.36,-0.085Z" style="fill:#3d301f;"/><path d="M167.384,566.508c5.776,2.73 11.213,2.635 16.649,2.535l-18.064,-10.79l0.472,3.243l0.708,3.184l0.236,1.828Z" style="fill:#3d301f;"/><path d="M251.037,572.574c0,0 1.425,-1.77 1.297,-2.359c-0.128,-0.588 -1.275,-1.11 -2.064,-1.172c-2.467,-0.195 -8.504,-0.331 -12.736,0c-5.244,0.41 -18.727,2.462 -18.727,2.462l-2.205,-8.423l-10.501,-0.178l3.346,-3.892l8.925,-0.76l17.689,7.069l4.009,2.359l12.618,-0.059l1.998,1.422l0,2.057l-3.649,1.474Z" style="fill:#3d301f;"/><path d="M187.445,603.365c0,0 0.189,5.231 -1.069,6.918c-1.258,1.688 -4.115,2.738 -6.478,3.208c-2.904,0.577 -10.944,0.252 -10.944,0.252l3.043,1.122l4.766,0.026l5.822,-0.593l4.817,-1.984l2.653,-1.855l0.258,-2.808l0.464,-4.637l-3.332,0.35Z" style="fill:#3d301f;"/><path d="M261.29,596.465c0,0 1.841,2.678 2.254,4.025c0.397,1.295 0.354,2.85 0.225,4.057c-0.118,1.107 -0.49,2.197 -0.998,3.188c-0.531,1.036 -2.19,3.027 -2.19,3.027l3.446,-1.81l1.288,-3.343l0.193,-2.595l-0.612,-2.331l-1.288,-3.027l-1.224,-1.61l-1.095,0.419Z" style="fill:#3d301f;"/><path d="M164.038,572.937c0,0 -4.028,8.289 -5.931,11.744c-1.694,3.074 -5.49,8.986 -5.49,8.986l1.074,1.915l3.326,-3.912l2.319,-3.401l2.808,-5.101l2.319,-4.74l2.19,-4.895l0.8,-2.844l-3.414,2.247Z" style="fill:#3d301f;"/><path d="M164.735,542.592c0,0 -0.834,3.761 -1.001,5.582c-0.162,1.775 -0.106,3.567 0,5.346c0.115,1.924 0.484,4.129 0.688,6.198c0.215,2.184 0.718,5.305 0.604,6.906c-0.071,0.994 -0.728,2.017 -1.292,2.695c-0.533,0.641 -2.089,1.372 -2.089,1.372l3.18,-0.669c1.132,-1.757 2.422,-3.561 2.294,-4.951l-1.208,-6.601l-0.04,-12.478l0.282,-2.675l-1.418,-0.725Z" style="fill:#3d301f;"/><path d="M251.234,572.559l2.616,-0.101c0,0 2.197,1.878 3.019,2.818c0.747,0.854 1.645,1.714 1.912,2.818c0.31,1.282 -0.05,4.875 -0.05,4.875c0,0 2.323,3.468 3.019,4.785c0.518,0.981 1.065,2.063 1.157,3.12c0.092,1.057 -0.226,2.289 -0.604,3.22c-0.362,0.893 -1.66,2.365 -1.66,2.365l1.925,-0.705l1.799,-2.314l0.05,-4.226l-1.359,-2.365l-2.868,-3.88l0.101,-5.429l-1.509,-2.465l-2.667,-2.667l-1.459,-1.718l-3.421,1.868Z" style="fill:#3d301f;"/><path d="M247.073,586.16l5.585,0.151l4.779,-2.736l-4.714,1.955l-7.497,-1.561l5.025,12.489l-3.178,-10.299Z" style="fill:#3d301f;"/><path d="M253.807,544.053c0,0 1.428,3.697 1.896,5.617c0.49,2.009 0.919,4.359 1.042,6.439c0.118,2.012 0.392,4.163 -0.307,6.04c-0.7,1.877 -3.89,5.221 -3.89,5.221l6.682,-4.271l0.419,-9.35l-2.222,-9.686l-3.619,-0.009Z" style="fill:#3d301f;"/><path d="M242.861,551.562c0,0 3.453,4.094 5.277,4.775c2.117,0.79 7.424,-0.034 7.424,-0.034c0,0 -4.525,1.261 -6.083,1.163c-1.233,-0.078 -2.558,-0.522 -3.489,-1.352c-1.103,-0.984 -3.131,-4.552 -3.131,-4.552Z" style="fill:#3d301f;"/></g></g><g id="Bag"><g><path d="M162.151,479.665l0,7.155l0.298,3.94l3.555,5.706l9.668,-6.679l-5.607,13.111l8.623,0.247l10.466,-16.847l-13.856,-2.601l-13.147,-4.032Z" style="fill:#5e4e34;"/><path d="M169.415,531.156l0.338,8.018l3.888,-4.758l-0.296,-7.028l-3.93,3.768Z" style="fill:#5e4e34;"/><path d="M228.438,480.354l-1.258,13.108l-2.162,11.21l8.336,-1.024l6.892,0.904l10.445,3.559l22.948,8.305l2.48,10.564l-22.936,8.418l-11.581,-5.536l-3.931,-0.644l-4.665,-2.684l-3.147,0.87l1.994,4.999l14.686,11.016l8.996,0.612l1.333,3.006l0.889,3.214l0.281,5.243l-0.148,4.635l-1.155,4.147l-4.113,3.148l2.116,1.89l6.039,-0.741l6.977,-3.011l6.801,-4.651l2.633,-5.134l2.37,-6.626l0.483,-5.66l0.153,-7.583l3.779,-0.155l-0.074,-3.91l-0.245,-1.693l-0.83,-5.041l-2.535,-3.877l-3.323,-4.132l-0.511,-1.129l-0.149,-5.666l-0.149,-3.025l-1.47,-3.685l-1.214,-2.045c2.32,-1.521 4.247,-3.769 6.012,-6.321l2.455,-6.241l0.915,-5.242l-0.291,-2.996l-1.706,-3.661l-1.872,-3.287l-3.079,-3.245l-2.704,-2.08l-4.868,-0.832l-3.994,-0.166l-3.412,-0.042l-5.686,-2.871l-8.751,4.66l-10.609,7.988l-7.446,3.142Z" style="fill:#5e4e34;"/></g><g><path d="M280.133,535.105l-2.743,-2.574c0,0 -3.292,4.696 -5.825,5.63c-2.809,1.036 -7.807,0.523 -11.25,0.048c-3.252,-0.448 -9.412,-2.895 -9.412,-2.895c0,0 -0.399,1.945 0.017,2.768c0.694,1.374 4.145,5.474 4.145,5.474l-5.423,-3.988l-0.638,-4.848l0.235,-2.56l19.433,0l8.82,-6.549l2.133,6.384l0.509,3.11Z" style="fill:#311a0c;"/><g><path d="M278.682,525.313l1.459,-0.324c0,0 2.081,4.744 2.541,6.324c0.295,1.013 0.216,3.157 0.216,3.157l-2.162,0c0,0 -0.108,-1.979 -0.324,-2.941c-0.342,-1.526 -1.73,-6.216 -1.73,-6.216Z" style="fill:#6f5b3b;"/><path d="M252.608,486.104l9.622,8.788c0,0 -0.148,-10.99 0.732,-14.738c0.88,-3.748 4.427,-8.831 4.427,-8.831l-8.657,0c0,0 -3.422,5.361 -4.443,7.824c-0.913,2.204 -1.681,6.956 -1.681,6.956Z" style="fill:#6f5b3b;"/><path d="M231.427,481.448l0,-1.142c0,0 4.614,-1.849 6.794,-2.968c2.179,-1.119 6.283,-3.743 6.283,-3.743c0,0 -0.096,4.565 -0.246,5.85c-0.076,0.654 -0.653,1.864 -0.653,1.864c0,0 -8.095,-1.038 -12.177,0.138Z" style="fill:#6f5b3b;"/><path d="M234.165,529.504c1.477,0.911 3.034,1.584 4.837,1.517c0,0 2.035,2.645 3.068,3.956c1.097,1.391 3.88,4.27 3.88,4.27l-2.221,0.364c0,0 -2.523,-1.667 -3.649,-2.615c-1.284,-1.081 -4.024,-4.045 -4.024,-4.045l-1.892,-3.446Z" style="fill:#6f5b3b;"/><path d="M276.275,537.844l1.676,1.191l0.013,4.577c0,0 -4.488,0.775 -5.854,0.761c-1.365,-0.014 -3.143,-1.515 -3.143,-1.515l0.213,-2.37c0,0 5.828,-0.05 7.095,-2.643Z" style="fill:#6f5b3b;"/><path d="M250.082,473.42l1.491,0.722l-3.031,10.151l-2.309,-1.106c0,0 1.491,-6.05 3.849,-9.766Z" style="fill:#6f5b3b;"/><path d="M264.569,548.5l6.647,1.689l6.174,-0.338l-1.782,4.223l-6.166,1.267l-5.743,-1.182l0.869,-5.659Z" style="fill:#6f5b3b;"/><path d="M260.478,559.729c2.564,1.427 5.435,1.523 8.446,1.014c0,0 -2.972,2.376 -4.436,3.08c-1.351,0.649 -5.353,2.26 -5.353,2.26c1.239,-2.118 1.594,-4.236 1.343,-6.354Z" style="fill:#6f5b3b;"/><path d="M253.175,537.844l5.022,2.037l-0.591,2.534c0,0 -2.525,-1.106 -3.145,-1.754c-0.441,-0.461 -1.287,-2.817 -1.287,-2.817Z" style="fill:#6f5b3b;"/><path d="M280.84,480.154c0,0 1.221,4.041 0.961,5.622c-0.352,2.138 -3.075,7.207 -3.075,7.207c0,0 1.751,-5.085 2.101,-7.207c0.352,-2.138 0.013,-5.622 0.013,-5.622Z" style="fill:#6f5b3b;"/><path d="M268.924,479.147c0,0 -1.325,4.911 -1.289,7.421c0.037,2.534 1.509,7.781 1.509,7.781c0,0 -1.985,-1.447 -2.847,-4.01c-0.298,-0.886 -0.646,-3.626 -0.511,-5.285c0.205,-2.526 3.138,-5.908 3.138,-5.908Z" style="fill:#6f5b3b;"/><path d="M180.15,490.197l2.123,0.143c-1.88,3.614 -3.523,7.101 -4.411,10.181l-4.089,0.134l6.377,-10.458Z" style="fill:#6f5b3b;"/><path d="M164.356,483.614c4.308,2.891 8.239,3.805 10.685,3.344c-3.775,2.19 -6.428,4.207 -7.782,6.025c-1.485,-1.18 -3.093,-4.838 -2.902,-9.369Z" style="fill:#6f5b3b;"/><path d="M273.787,481.194c0,0 0.551,3.279 0.551,4.591c0,1.596 -0.551,4.988 -0.551,4.988c0,0 -0.844,-3.392 -0.844,-4.988c0,-1.554 0.844,-4.591 0.844,-4.591Z" style="fill:#6f5b3b;"/></g><path d="M265.182,541.552c0,0 1.023,2.72 2.169,3.448c3.347,2.127 12.79,0.167 12.79,0.167l-0.39,1.145c0,0 -3.598,1.357 -4.543,1.31c-1.628,-0.08 -4.576,-0.175 -4.576,-0.175c0,0 -3.942,-0.241 -4.85,-1.223c-0.908,-0.982 -0.736,-3.396 -0.599,-4.671Z" style="fill:#311a0c;"/><path d="M259.844,546.224c0,0 0.834,5.969 1.724,7.785c0.7,1.428 2.116,2.583 3.615,3.114c1.752,0.621 6.587,0.276 8.7,-0.094c1.482,-0.26 3.979,-2.13 3.979,-2.13l-2.113,3.058c0,0 -6.566,0.868 -8.929,0.775c-2.22,-0.087 -4.07,-0.461 -5.251,-1.331c-1.155,-0.851 -1.835,-3.893 -1.835,-3.893l0.111,-7.285Z" style="fill:#311a0c;"/><path d="M274.142,559.766c-1.3,1.287 -2.845,2.752 -4.55,3.717c-2.342,1.325 -6.851,3.434 -9.502,4.235c-2.052,0.62 -6.406,0.569 -6.406,0.569l1.886,1.281l6.157,-0.997l6.406,-2.705l3.701,-2.349l3.274,-3.132l2.282,-4.627c0,0 -2.027,2.796 -3.248,4.006Z" style="fill:#311a0c;"/><path d="M274.451,512.046l2.349,0.107l-0.214,3.345l5.022,7.225c1.545,2.83 1.97,4.54 2.172,6.028l-0.178,2.456c0,0 -1.352,-4.318 -2.171,-6.193c-0.767,-1.756 -1.851,-3.82 -2.74,-5.054c-0.683,-0.947 -2.598,-2.349 -2.598,-2.349l-0.534,0.605c0,0 0.942,2.417 1.281,3.666c0.587,2.159 2.242,9.289 2.242,9.289l-4.306,-11.033l-1.174,-2.385l0.849,-5.708Z" style="fill:#311a0c;"/><path d="M232.096,530.794c0,0 1.632,1.299 2.392,2.012c1.55,1.455 3.349,3.658 5.645,5.322c2.053,1.488 7.357,4.533 7.357,4.533l4.575,0.092c0,0 -3.096,-1.427 -4.811,-3.23c-0.829,-0.872 -5.477,-7.589 -5.477,-7.589l7.228,7.441l6.742,4.518l-8.352,0.114l-7.327,-3.986l-5.353,-4.812l-2.619,-4.413Z" style="fill:#311a0c;"/><path d="M225.772,501.222l4.829,-16.275c4.173,-1.281 7.843,-0.607 11.407,0.139l-4.254,10.382l7.474,-11.626l-9.515,-1.93l-7.983,1.04l-1.957,18.269Z" style="fill:#311a0c;"/><path d="M227.903,481.194c0,0 8.561,-3.381 11.982,-5.338c3.089,-1.768 5.698,-4.532 5.698,-4.532c0.838,3.884 0.95,6.094 0.72,7.514c0,0 3.162,-6.222 4.9,-8.2c1.539,-1.752 3.699,-3.521 5.528,-4.865c1.785,-1.312 5.576,-3.618 5.576,-3.618l-9.728,-0.89l-23.964,15.719l-0.712,4.211Z" style="fill:#311a0c;"/><path d="M250.692,482.597c0,0 1.018,-6.022 1.957,-8.151c0.795,-1.803 3.678,-4.627 3.678,-4.627l-1.364,-2.432l2.83,-2.954l3.872,-1.554l-0.203,4.54c0,0 -4.782,4.022 -6.381,6.315c-1.72,2.466 -4.389,8.863 -4.389,8.863Z" style="fill:#311a0c;"/><path d="M270.021,472.105c0,0 -3.562,4.397 -4.233,6.942c-0.817,3.098 -1.177,8.374 -0.67,11.643c0.434,2.802 1.244,4.87 2.141,6.625c0.769,1.506 3.237,3.906 3.237,3.906c0,0 -3.849,-2.66 -4.903,-4.363c-1.055,-1.703 -1.424,-5.853 -1.424,-5.853c0,0 -0.48,-5.05 -0.237,-7.434c0.239,-2.346 0.709,-5.018 1.692,-6.87c1.015,-1.911 4.398,-4.598 4.398,-4.598Z" style="fill:#311a0c;"/><path d="M181.122,486.329l4.664,0.325c0,0 -3.314,4.977 -4.302,6.942c-0.766,1.522 -1.627,4.845 -1.627,4.845l9.364,-12.78l-7.231,-1.14l-0.868,1.808Z" style="fill:#311a0c;"/><path d="M162.258,480.336c0,0 5.016,2.567 7.719,3.62c2.664,1.037 8.404,1.706 8.404,1.706l-4.472,4.395l10.033,-5.535l0.597,-2.283l-22.388,-4.9l0.107,2.998Z" style="fill:#311a0c;"/><path d="M172.778,528.181l-0.353,7.626l3.672,-4.872l0.565,-4.096l-2.485,-0.024l-1.398,1.366Z" style="fill:#311a0c;"/></g><path d="M231.944,486.587l8.114,-0.536c0,0 -3.392,5.178 -3.647,6.634c-0.53,3.033 -2.022,9.829 -2.246,9.269l-6.368,0.02c0,0 0.876,-4.667 1.412,-7.051c0.585,-2.604 2.735,-8.335 2.735,-8.335Z" style="fill:#786546;"/></g><g id="Vest"><path d="M178.382,503.145l13.328,-8.747l30.913,5.893l1.327,16.865l4.314,9.039l6.282,9.085l4.549,8.377l-0.859,5.853l0.576,9.934l1.035,7.893l-2.846,0.107l-17.129,2.094l-2.846,-11.545l-1.772,-8.752l-22.16,-3.5l-6.429,5.879l-0.653,14.739l-1.924,2.199l-3.883,-1.34l-8.626,-4.089l-5.498,-4.605l-0.331,-12.782l0.64,-2.236l5.395,-7.045l7.928,-10.636l-3.636,0.821l2.305,-23.501Z" style="fill:#c7944b;"/><g><g><path d="M217.383,515.212l3.795,0.12c0,0 -0.137,1.978 0.12,2.916c0.118,0.43 0.835,0.769 0.835,0.769l0.763,2.587c-1.537,0.595 -3.669,0.393 -5.645,-0.327c0.021,-0.58 -0.358,-2.504 0.131,-6.066Z" style="fill:#daa04e;"/><path d="M217.383,524.161l5.513,0.08c0,0 0.433,2.69 1.238,3.675c0.806,0.985 4.376,2.689 4.376,2.689l2.41,3.961c-2.938,1.006 -7.987,0.47 -10.082,-0.225c-1.475,-0.489 -2.146,-2.756 -2.49,-3.942c-0.459,-1.58 -0.965,-6.239 -0.965,-6.239Z" style="fill:#daa04e;"/><path d="M226.288,545.862l8.957,-0.098c-0.186,6.457 0.213,9.798 0.687,12.732c0,0 -6.025,1.647 -7.313,0.144c-1.287,-1.503 -0.07,-7.088 -0.411,-9.163c-0.26,-1.582 -1.92,-3.615 -1.92,-3.615Z" style="fill:#daa04e;"/><path d="M224.513,557.023c0,0 1.692,3.527 2.633,3.916c1.746,0.721 8.787,0.083 8.787,0.083l0,2.773c0,0 -7.528,0.878 -9.274,-0.21c-1.746,-1.088 -2.146,-6.562 -2.146,-6.562Z" style="fill:#daa04e;"/><path d="M218.085,505.346c0,0 -3.948,2.969 -4.217,5.179c-0.555,4.562 0.06,14.837 0.888,22.195c0.851,7.559 3.058,17.694 4.217,23.157c0.692,3.261 2.023,8.31 5.179,9.618c3.453,1.43 15.536,-1.036 15.536,-1.036l0.37,3.255l-9.132,0.666l-11.276,0.977l-3.341,-15.255l-3.559,-20.66l-0.14,-7.157l-0.592,-16.054l3.625,-7.028l2.441,2.145Z" style="fill:#daa04e;"/><path d="M185.522,501.032c0,0 3.115,3.22 3.518,5.302c0.657,3.4 0.537,10.329 0.423,15.097c-0.106,4.457 -0.406,9.256 -1.105,13.51c-0.679,4.132 -2.385,8.06 -2.959,12.207c-0.74,5.343 -0.915,16.41 -1.48,19.852c-0.112,0.682 -1.273,1.066 -1.911,0.801c-1.912,-0.791 -7.114,-3.861 -9.559,-5.546c-1.882,-1.297 -4.936,-4.12 -4.936,-4.12l-1.579,-0.105l0.045,1.448l5.549,4.624l5.055,2.836l5.425,2.402c1.747,0.107 3.075,-0.358 3.773,-1.682l0.358,-5.036l0.617,-11.591l3.391,-15.906l0.74,-21.887l-0.801,-13.317l-1.045,-2.382l-3.518,3.492Z" style="fill:#daa04e;"/><path d="M185.015,509.671c0,0 0.474,1.184 0.789,1.736c1.29,2.259 0.816,9.432 0,9.115l-2.131,0.079c0.021,0.373 1.014,-2.379 0.638,-3.255c0,0 1.112,-1.204 1.149,-1.506c0.362,-2.947 -0.446,-6.169 -0.446,-6.169Z" style="fill:#daa04e;"/><path d="M182.963,523.205l3.314,-0.079c0,0 -0.592,5.541 -1.539,7.26c-0.828,1.503 -1.736,2.62 -2.787,3.054c-0.681,0.281 -4.218,0 -4.218,0c0,0 4.253,-6.339 4.955,-7.853c0.755,-1.631 0.275,-2.382 0.275,-2.382Z" style="fill:#daa04e;"/><path d="M172.059,542.569l8.861,0.375c0,0 -2.879,2.638 -3.836,4.192c-0.76,1.234 -1.211,4.889 -2.481,5.383c-1.27,0.494 -5.841,0 -5.841,0c0,0 0.581,-7.723 3.298,-9.949Z" style="fill:#daa04e;"/><path d="M179.861,549.41c0,0 -0.725,2.466 -1.429,3.354c-0.704,0.888 -2.553,2.116 -3.592,2.585c-1.136,0.513 -3.756,0.412 -3.756,0.412l-0.005,1.598c0,0 2.375,0.139 3.184,-0.025c0.809,-0.164 1.523,-0.372 2.253,-0.824c0.807,-0.5 2.408,-2.304 2.917,-3.316c0.539,-1.072 0.427,-3.783 0.427,-3.783Z" style="fill:#daa04e;"/></g></g><g><path d="M215.446,503.494c0,0 4.779,1.501 4.973,3.39c0.193,1.889 0.071,7.094 0.728,6.891l2.587,0.417l-0.979,-3.699l2.562,-5.3l-3.541,-3.584l-4.521,-1.582l-1.808,3.466Z" style="fill:#c58742;"/><path d="M230.673,536.074c0,0 2.463,3.845 3.743,5.344c1.087,1.273 3.933,3.65 3.933,3.65l1.397,0.501l7.784,-1.621l-3.51,-1.813l-4.976,-3.356l-3.549,-2.706l-4.821,0Z" style="fill:#c58742;"/><path d="M236.476,543.948c0,0 -0.294,5.51 -0.144,8.162c0.142,2.509 1.044,7.746 1.044,7.746l1.725,-0.514l-0.632,-6.301l0.105,-7.208l1.327,-0.264l-3.425,-1.621Z" style="fill:#c58742;"/><path d="M222.105,514.193c0,0 0.14,2.309 0.365,2.978c0.096,0.286 0.985,1.038 0.985,1.038c0,0 0.231,2.686 0.359,3.167c0.204,0.764 0.863,1.415 0.863,1.415l1.496,0l-1.243,-1.554l-0.295,-3.055l-0.948,-1.327l-0.211,-2.662l-1.371,0Z" style="fill:#c58742;"/><path d="M224.139,522.791c0,0 0.588,3.059 1.177,4.008c0.511,0.821 1.713,1.667 2.427,2.146c0.552,0.37 1.857,0.725 1.857,0.725c0,0 0.987,2.263 1.593,3.107c0.754,1.05 2.93,3.194 2.93,3.194l1.514,0.099l-3.358,-4.641l-2.238,-4.192l-3.226,-4.444l-2.677,0Z" style="fill:#c58742;"/><path d="M180.213,497.54l8.827,0.042c0,0 -0.075,1.497 -0.504,2.058c-1.006,1.316 -5.068,5.375 -5.068,5.375c0,0 0.688,2.439 0.683,3.368c-0.004,0.773 -0.454,2.104 -0.454,2.104c0,0 0.745,1.8 0.735,2.687c-0.005,0.437 0.053,1.552 -0.183,2.236c-0.348,1.011 -1.033,1.568 -1.033,1.568c0,0 0.186,2.332 -0.057,3.116c-0.21,0.676 -1.405,1.592 -1.405,1.592c0,0 0.545,1.685 -0.024,2.938c-0.733,1.615 -4.377,6.753 -4.377,6.753l-6.295,9.118l-2.21,-0.112l5.131,-6.517c0.764,-1.127 1.714,-2.825 1.714,-2.825l0.838,-4.148l3.59,-1.642l-1.723,-22.06l1.813,-5.652Z" style="fill:#c58742;"/><path d="M171.589,540.496c0,0 -2.123,2.085 -2.74,3.405c-0.693,1.482 -1.238,3.608 -1.415,5.489c-0.226,2.402 0.059,8.921 0.059,8.921l-1.558,-0.113l0,-14.531l2.915,-3.198l2.74,0.027Z" style="fill:#c58742;"/></g><path d="M244.667,483.925l2.04,1.181l2.935,2.992l-5.477,5.349l-2.112,3.437l-2.005,7.661c0,0 -2.864,-0.859 -4.331,-0.895l1.253,-5.584l1.146,-4.475l1.79,-3.354l3.222,-4.199l1.539,-2.112Z" style="fill:#c7944b;"/><path d="M240.133,529.527l3.023,4.296l2.446,2.514l4.041,3.035l-0.447,-2.148l0.447,-2.73l0,-2.506l-5.029,-0.403l-1.934,-1.745l-2.547,-0.313Z" style="fill:#c7944b;"/></g><g id="Dress"><path d="M186.796,487.619l-6.233,9.787l8.461,0l2.625,10.506l-1.273,25.098l-0.935,13.417l15.152,1.669l9.145,0.2l-1.042,-14.847l-0.16,-12.387l-0.534,-11.014l5.674,-9.746c0,0 5.207,1.669 7.076,4.739l1.296,-3.788l1.12,-5.634l0.595,-4.165l0.57,-5.793l-11.563,1.14l-29.973,0.818Z" style="fill:#7e8152;"/><path d="M227.686,492.617c0,0 -0.681,-4.536 -2.27,-3.571c-1.675,1.018 -4.871,4.544 -7.525,6.852c-4.155,3.613 -14.732,13.046 -18.074,13.657c-5.227,0.957 -4.584,-14.538 -7.182,-17.439c-2.062,-2.303 -8.404,0.033 -8.404,0.033l4.107,-6.53l24.991,-1.153l7.305,-2.264l7.775,-3.93l0.299,5.554l-1.023,8.792Z" style="fill:#5b553b;"/><path d="M191.015,523.091c0,0 -0.254,12.847 0,16.622c0.139,2.068 -0.139,5.023 1.526,6.028c1.664,1.005 8.46,0 8.46,0l-5.82,-6.419c0,0 13.02,6.114 15.938,6.419c1.607,0.168 1.591,-2.972 1.569,-4.588c-0.037,-2.677 -0.49,-12.029 -0.102,-12.195l0.236,4.189l3.222,18.318l-7.088,-0.02l-2.854,-1.642l-11.213,-0.024l-1.807,1.787l-6.46,0.054l0.677,-6.983l1.282,-4.526l1.286,-3.733l1.149,-13.287Z" style="fill:#5b553b;"/><g><path d="M181.663,495.428c0,0 6.527,-0.726 7.922,-0.048c1.396,0.678 2.396,3.623 2.694,5.505c0.684,4.314 0.518,8.389 0.218,14.239c-0.248,4.83 -2.02,16.376 -2.02,16.376l0.538,-8.305l0,-15.619l-1.928,-10.02l-9.102,0l1.678,-2.129Z" style="fill:#a9ad6c;"/><path d="M264.7,503.368l4.624,5.177l1.57,5.531l3.011,3.942l0.67,-4.539l-0.046,-2.134l-0.949,-1.967l-2.453,-3.356l-2.662,-2.5l-3.764,-0.153Z" style="fill:#a9ad6c;"/><path d="M248.826,491.194l13.246,11.482l-3.236,3.074l5.654,-1.282l3.183,-0.434l1.651,-0.09l-4.246,-2.289l-3.16,-3.118l-6.277,-5.296l-4.612,-3.981l-2.202,1.933Z" style="fill:#a9ad6c;"/><path d="M177.688,487.533l-10.901,8.222c-4.158,4.266 -6.454,7.377 -7.636,9.795l-0.593,-1.185l-4.123,2.123l-3.16,2.799l-3.067,3.986l1.27,1.052l9.573,-6.67l5.401,-2.345l8.672,-11.388l6.08,-6.11l-1.516,-0.278Z" style="fill:#a9ad6c;"/><path d="M177.466,488.003c0,0 -9.441,8.943 -12.376,12.027c-1.965,2.065 -5.236,6.479 -5.236,6.479l3.249,2.778l7.487,-5.933l5.933,-9.418l5.964,-9.187l-5.022,3.254Z" style="fill:#7e8152;"/></g><path d="M248.826,490.462l-6.265,10.895l3.843,6.148l8.454,4.825l9.843,2.228l1.943,0.271l0,-1.085l2.183,-0.316l3.888,2.215l-0.542,-4.95l-6.6,-7.844l-15.009,-12.613l-1.737,0.226Z" style="fill:#7e8152;"/><path d="M251.764,489.752c0,0 -4.563,3.602 -6.134,6.566c-1.321,2.492 -2.368,4.832 -1.576,6.456c0.737,1.51 2.94,1.983 4.364,3.039c1.579,1.171 4.261,4.177 5.108,3.989l-2.552,1.762l-4.496,-0.486c0,0 -3.524,-4.544 -6.38,-6.191l1.823,-7.784l2.005,-3.585l5.75,-5.595l2.087,1.828Z" style="fill:#5b553b;"/><path d="M254.735,508.544c0,0 0.735,0.687 2.712,3.658c0.863,1.297 7.968,0.761 9.015,2.089l0.182,1.823l-7.352,-0.365l-4.921,-0.243l-3.342,-3.943l3.706,-3.019Z" style="fill:#5b553b;"/><path d="M149.15,514.189c3.239,-3.225 6.631,-6.093 10.247,-8.438l3.918,3.537l-6.065,5.316l-5.668,1.22l-2.432,-1.635Z" style="fill:#7e8152;"/></g><g id="Hat"><path d="M269.579,460.136l-3.54,2.82l6.459,-0.64l13.269,-2.566l10.299,-3.338l6.77,-3.338l4.386,-3.624l3.719,-3.719l2.193,-3.91l1.24,-4.196l-0.095,-5.912l-2.575,-7.438l-3.433,-5.34l-3.338,-3.528l-5.54,-4.541l-2.9,-2.175l-6.929,-4.733l-6.652,-3.479l-4.962,-2.258l-0.461,-8.91l-2.655,-16.853l-1.062,-4.031l-1.062,-2.968l-1.281,-2.593l-1.469,-2l-1.594,-2.062l-1.594,-1.781l-1.437,-1.656l-1.844,-1.781l-1.781,-1.781l-3.156,-2.5l-3.75,-2.968l-2.593,-1.875l-6.183,-4.742l-4.848,-3.072l-5.56,-2.915l-5.786,-2.077l-6.458,-1.042l-6.597,0.625l-5.555,0.833l-10.228,1.817l-4.215,1.1l4.215,-2.916l-11.056,-1.794l-5.312,-0.243l-3.385,0.445l-3.1,1.081l-3.328,1.991l-2.986,2.531l-2.986,3.015l-4.608,5.831l-2.531,3.641l-3.953,5.66l-2.674,4.352l-1.906,2.759l-1.962,3.214l-4.821,8.203l-8.045,0.778l-8.721,1.5l-8.333,2.15l-9.992,3.554l-4.456,1.896l-3.271,2.228l-4.977,5.831l-1.706,3.366l-0.969,4.034l0,5.588l1.159,5.783l1.517,4.645l1.564,3.578l2.181,3.816l3.603,3.745l4.077,2.939l2.038,1.944l5.025,3.223l5.357,3.65l6.162,4.219l8.912,5.594l98.269,-1.705l33.795,15.023Z" style="fill:#fcf4cf;"/><path d="M158.695,361.778c0,0 11.103,-16.11 15.931,-20.758c3.567,-3.435 9.172,-5.963 13.034,-7.129c3.235,-0.977 10.138,0.129 10.138,0.129l-3.621,3.259c0,0 12.706,-2.805 17.966,-3.388c4.504,-0.499 9.655,-0.415 13.595,-0.112c3.4,0.262 10.047,1.931 10.047,1.931l4.375,6.155l9.052,27.275l0.034,0.747c0,0 -2.043,-1.78 -4.976,-2.669l-0.231,2.999l-11.798,-3.394l-7.942,-2.307l-6.624,-1.714l-7.448,-1.747l-5.635,-1.351l-5.767,-1.022l-4.779,-0.614l-9.096,0l-5.899,0.713l-5.075,0.527l-4.91,0.692l-6.196,1.285l-4.35,0.89l0.177,-0.397Z" style="fill:#c4a473;"/><path d="M246.675,396.655c14.28,1.458 28.06,5.255 40.483,12.641c4.288,2.549 11.474,5.83 15.045,9.427c3.571,3.597 6.755,8.048 8.389,12.154c1.588,3.988 0.443,7.336 -0.215,10.347c-0.946,4.33 -14.239,13.927 -18.359,15.298c-7.825,2.603 -22.895,4.204 -22.895,4.204l4.953,-6.17l2.911,-5.04l0.956,-3.78l-0.174,-4.258l-1.303,-4.388l-0.043,-2.911l-0.608,-5.605l-0.956,-4.258l6.952,5.214l-5.561,-8.994l-5.605,-7.169l-6.865,-5.648l-4.779,-3.302l-2.607,-1.825l-9.718,-5.939Z" style="fill:#634731;"/><path d="M149.698,383.4l-6.083,3.881l-4.692,2.665l-5.619,2.781l-5.327,2.613l-4.295,1.969l-2.631,0.925l1.706,1.898l2.183,1.495l2.088,1.329l1.163,0.427l3.227,0.664l3.512,-0.688l-1.614,2.302l-1.708,2.539l-1.566,3.884l-0.854,3.59l0.119,4.366l0.593,4.508l0.641,2.824l1.397,-4.931l1.412,-2.649l1.321,-2.438l1.124,-1.063l0.395,1.853l0.592,2.916l0.86,3.133l0.89,3.077l2.262,4.56l-1.409,2.669l-1.335,3.3l-0.802,5.831c0,0 -13.895,-8.488 -20.295,-12.754c-6.712,-4.473 -13.038,-9.842 -15.355,-14.46c-1.492,-2.975 -3.402,-9.562 -3.688,-12.878c-0.29,-3.347 0.349,-5.481 2.103,-8.185c1.754,-2.703 9.269,-8.719 9.269,-8.719l4.809,-2.533l3.579,-1.101l4.41,-1.06l3.603,-0.537l3.535,-0.29l6.96,0.316l5.758,0.696l3.797,0.823l3.967,0.45Z" style="fill:#634731;"/><path d="M235.948,333.89c0,0 -0.595,7.515 0.483,11.007c1.078,3.492 4.866,6.241 5.986,9.945c1.255,4.152 1.545,14.965 1.545,14.965l0.293,-2.534l2.278,0.709l1.012,0.759l2.659,1.489l4.379,3.788l3.891,4.714l0.063,-1.139l4.05,2.404l2.183,1.898l2.816,3.733l0.411,0.759l0.19,-1.55l4.271,2.563c0,0 0.485,-6.661 0.174,-9.897c-0.31,-3.229 -0.485,-6.668 -2.039,-9.516c-2.214,-4.058 -6.631,-11.251 -11.053,-15.603c-5.774,-5.683 -23.593,-18.495 -23.593,-18.495Z" style="fill:#634731;"/><path d="M120.073,379.676c1.49,-0.745 27.469,-0.149 35.16,1.527c8.98,1.957 31.424,2.471 40.835,4.021c11.537,1.9 28.122,6.263 39.716,7.29c13.322,1.181 51.453,12.098 49.354,12.215c-3.752,-2.851 -43.327,-19.179 -43.327,-19.179c0,0 -20.119,-6.307 -27.327,-8.122c-8.034,-2.023 -23.993,-3.777 -32.494,-3.494c-7.225,0.241 -27.67,-0.087 -34.883,0.393c-7.7,0.513 -27.034,5.349 -27.034,5.349Z" style="fill:#c4a473;"/><path d="M154.194,382.369c0,0 4.182,1.651 7.684,2.489c2.729,0.653 10.862,2.081 13.325,2.542c2.17,0.406 4.31,0.966 6.476,1.395c2.711,0.537 6.568,1.312 9.788,1.829c3.165,0.508 6.542,0.835 9.532,1.272c2.785,0.407 10.646,1.186 13.484,1.271c3.453,0.103 11.253,-0.653 11.253,-0.653c0,0 -12.775,-2.125 -16.919,-2.977c-3.968,-0.816 -7.964,-1.49 -11.963,-2.137c-4.82,-0.78 -11.28,-1.873 -16.956,-2.542c-7.11,-0.839 -25.706,-2.489 -25.706,-2.489Z" style="fill:#c4a473;"/><path d="M277.491,392.082l-4.341,-4.042l-4.987,-3.398l-0.275,1.575l-3.206,-4.563l-2.778,-2.347l-3.273,-1.872l-0.096,1.44l-5.19,-5.98c-2.937,-2.568 -5.823,-4.16 -9.16,-5.827l-0.026,2.812l-15.137,-4.038l-24.511,-6.134l-11.286,-1.64l-9.634,0.2l-10.776,1.265l-9.639,1.527c-3.963,0.754 -7.871,1.687 -11.628,3.107l-5.156,8.289l6.445,-0.293l21.385,-1.992l18.045,0.508l20.447,2.539l19.158,5.624l22.849,7.376l19.451,9.595l3.319,0.488l0,-4.219Z" style="fill:#9c8838;"/><path d="M276.695,393.088l-8.695,-7.284l-0.276,7.593l7.762,3.318l1.209,-3.628Z" style="fill:#84722b;"/><path d="M267.096,386.799l-8.926,-7.827l-0.069,10.894l8.582,2.769l0.412,-5.836Z" style="fill:#84722b;"/><path d="M255.699,378.148l-12.383,-8.315l-1.074,13.723l12.908,3.792l0.549,-9.2Z" style="fill:#84722b;"/><path d="M240.144,371.392c0,0 -23.631,-6.139 -32.183,-7.867c-6.304,-1.274 -13.85,-2.49 -20.276,-2.217c-9.119,0.387 -25.305,1.779 -32.005,3.683c-2.582,0.734 -7.05,7.457 -7.05,7.457l12.23,-0.366l6.591,-0.146l11.425,0.293l7.177,0.073l9.667,0.732l6.738,0.513l6.738,1.123l4.292,0.669l18.093,4.239l8.642,0.513l-0.079,-8.697Z" style="fill:#84722b;"/><path d="M239.097,368.764c0,0 0.355,5.476 -0.549,7.072c-0.9,1.589 -3.048,2.541 -4.874,2.502c-4.177,-0.091 -20.186,-3.046 -20.186,-3.046l12.152,3.497l8.308,2.403l9.955,3.667l0.206,-14.79l-5.012,-1.305Z" style="fill:#484125;"/><path d="M255.301,374.668c0,0 -0.057,6.246 -0.6,8.019c-0.365,1.191 -1.417,2.555 -2.66,2.623c-1.803,0.099 -8.156,-2.032 -8.156,-2.032l0.009,1.354l3.888,1.26l11.241,3.973l-0.395,-10.88l-3.326,-4.317Z" style="fill:#484125;"/><path d="M266.361,383.555c0.281,2.969 0.108,5.974 -0.661,7.219c-0.585,0.946 -3.953,0.251 -3.953,0.251l6.284,2.636l0.132,-7.47l-1.802,-2.636Z" style="fill:#484125;"/><path d="M276.203,390.586c0,0 -0.2,3.106 -0.633,3.859c-0.307,0.533 -1.343,0.755 -1.969,0.66c-1.208,-0.183 -5.439,-1.444 -5.439,-1.444l9.975,4.526l-0.352,-6.24l-1.582,-1.362Z" style="fill:#484125;"/></g><g id="Skin"><g id="Skin1" serif:id="Skin"><g><path d="M196.396,492.27l0.173,5.146l0.824,0.942l2.254,0.992l2.518,0.156l3.515,-0.296l3.717,-1.037l2.36,-3.233l3.153,-4.204l3.285,-4.04l2.759,-3.482l0.296,-2.365l-15.602,2.398l-7.161,1.938l-2.089,7.086Z" style="fill:#fff5e2;"/><path d="M197.474,487.887c0,0 -0.855,6.908 -0.154,8.383c0.611,1.285 3.196,1.878 4.619,1.903c1.463,0.026 3.579,-0.506 5.03,-1.232c1.557,-0.778 3.202,-3.053 4.516,-4.465c1.959,-2.104 7.544,-9.803 7.544,-9.803l-21.555,5.214Z" style="fill:#fad0a6;"/><path d="M196.393,496.269c0,0 0.475,-4.049 1.019,-5.474c0.453,-1.187 1.029,-2.713 2.245,-3.079c3.186,-0.961 13.29,-2.255 16.872,-3.015c1.625,-0.344 4.619,-1.54 4.619,-1.54l1.668,-3.657l-26.842,3.785l0,6.57l0.418,6.41Z" style="fill:#e09173;"/></g><g id="Skin2" serif:id="Skin"><path d="M149.038,414.631l-0.204,38.589l10.208,21.48l24.294,10.33l14.903,0l34.094,-9.717l16.128,-17.716l-0.612,-31.689l-14.495,-27.561l-47.6,1.837l-36.715,14.447Z" style="fill:#fad0a6;"/><path d="M150.566,421.411c0,0 0.126,17.892 0.602,25.198c0.407,6.246 1.138,13.531 3.718,18.641c2.58,5.11 6.679,8.911 11.761,12.02c5.388,3.297 19.107,7.76 19.107,7.76c0,0 -13.699,-2.595 -18.397,-4.215c-3.538,-1.219 -7.154,-3.188 -9.787,-5.5c-2.955,-2.594 -6.079,-7.347 -7.94,-10.065c-1.18,-1.723 -1.868,-6.028 -1.868,-6.028l-0.655,-16.729l0.228,-2.525l-0.452,-8.561l-0.62,-7.867l4.303,-2.128Z" style="fill:#fff5e2;"/><path d="M146.561,435.134c0,0 1.539,-10.622 4.369,-13.873c3.166,-3.636 13.372,-6.376 13.372,-6.376l-3.262,3.136c0,0 11.031,-0.805 15.457,-1.359c5.008,-0.627 16.16,-6.69 16.16,-6.69l-0.962,6.272c8.556,-2.867 15.526,-7 22.967,-12.376l12.106,2.486c0,0 7.547,7.374 10.704,11.461c2.626,3.401 7.418,12.886 8.028,17.139c0.857,5.979 -0.236,20.351 -4.348,26.156c-5.233,7.387 -14.808,14.763 -24.752,18.689c-9.944,3.927 -34.912,4.871 -34.912,4.871l10.788,1.69l5.129,-0.099l9.205,-1.052l13.785,-2.905l7.464,-2.269c4.134,-1.13 8.038,-3.102 11.734,-5.838l13.077,-11.855l5.512,0.619l4.644,0.082l4.398,-0.822l2.384,-2.261l3.658,-4.521l2.754,-4.028l1.315,-2.836l0.616,-4.151l-0.781,-5.343l-3,-5.919l-3.247,-2.285l-3.453,-0.427l-3.905,1.808l-3.206,3.781l-7.439,9.207l-0.37,-7.111l-0.617,-7.259l-3.905,-15.594l-4.028,-9.412l-0.329,11.591l-6.782,-9.207l-4.48,-9.659l-1.151,-3.297l-72.689,-8.746l-7.839,12.741l-4.369,15.75l-0.055,4.932l-0.137,6.686l0.39,8.472Z" style="fill:#e09173;"/><path d="M253.409,444.643c0,0 8.69,-8.943 11.607,-10.751c1.161,-0.72 2.745,-0.929 4.167,-0.682c0.625,0.109 1.218,0.306 1.731,0.586c1.681,0.92 3.646,3.343 4.186,5.613c0.618,2.601 0.551,6.818 -0.476,9.99c-1.062,3.282 -5.007,9.248 -8.144,11.367c-3.28,2.216 -11.534,1.928 -11.534,1.928l5.3,0.436l4.489,-0.249l3.616,-1.216l1.902,-2.463l2.681,-2.931l3.616,-5.986l0.966,-1.871l0.432,-4.365l-0.526,-3.34l-0.811,-3.02l-1.192,-2.985l-1.645,-2.097l-2.837,-1.621l-2.494,-0.405l-2.338,0.156l-2.338,1.559l-3.585,3.679l-6.777,8.666Z" style="fill:#fff5e2;"/><path d="M263.287,442.777c0,0 3.808,1.287 4.774,2.562c0.966,1.275 1.315,3.605 1.023,5.086c-0.292,1.481 -1.538,2.838 -2.777,3.8c-1.307,1.015 -3.556,2.176 -5.066,2.29c-1.431,0.108 -3.759,-0.934 -3.994,-1.608c-0.235,-0.674 2.545,-1.486 3.419,-2.283c0.893,-0.814 1.925,-1.741 1.939,-2.603c0.015,-0.862 -1.851,-2.567 -1.851,-2.567l2.533,-4.676Z" style="fill:#b3634c;"/><path d="M272.901,443.779c0,0 -0.051,-3.032 -0.876,-4.034c-0.825,-1.002 -2.594,-2.285 -4.072,-1.979c-1.655,0.343 -3.236,1.322 -4.746,2.946c-1.485,1.597 -3.568,5.245 -4.312,6.797c-0.363,0.756 -0.152,2.512 -0.152,2.512c0,0 1.199,-0.447 1.598,-0.913c0.761,-0.888 1.84,-3.047 2.968,-4.415c1.154,-1.399 2.791,-3.317 3.958,-3.981c0.882,-0.502 2.153,-0.485 3.045,0c0.939,0.511 2.588,3.067 2.588,3.067Z" style="fill:#5e0600;"/><path d="M140.824,432.361l-2.142,3.755l-1.475,6.159l0,3.883l1.173,3.648l2.276,4.017l3.929,4.653l3.423,2.43l-1.126,-6.279l0,-11.247l0.502,-3.615l-3.213,-2.979l-2.176,-2.644l-1.172,-1.78Z" style="fill:#fff5e2;"/><path d="M143.036,435.59c0,0 -1.108,1.834 -1.873,3.814c-0.299,0.773 -0.545,1.568 -0.652,2.285c-0.373,2.485 -0.173,6.493 0.905,8.763c1.387,2.922 6.593,10.975 6.593,10.975c-0.564,-3.704 -0.911,-8.823 -1.126,-14.793l0.472,-6.598c-1.849,-1.482 -3.168,-2.964 -4.318,-4.446Z" style="fill:#e09173;"/></g></g><g><path d="M232.283,503.904l-7.053,0.68l-2.031,2.394l0.14,6.815l-0.031,1.999l1.23,2.153l0.707,3.414l1.038,1.488l0,2.478l1.679,1.664l3.448,0.246l1.556,-0.769l-0.646,-6.09l-0.369,-5.106l-0.092,-5.352l0.338,-3.199l0.085,-2.815Z" style="fill:#fad0a6;"/><path d="M174.143,503.217l-0.026,23.428l1.794,0.333l3.153,-0.897l1.314,-1.897l0.276,-2.717l1.666,-2.307l-0.487,-2.461l1.179,-0.923l0.205,-2.076l-0.282,-2.179l-0.718,-1.179l-0.103,-4.563l-1.737,-2.333l-6.235,-0.231Z" style="fill:#fad0a6;"/><path d="M175.902,505.194c0.325,0.279 0.087,1.895 0.087,1.895c0,0 2.444,0.058 4.109,0.575c0.541,0.168 0.336,-1.228 0.231,-1.699c-0.106,-0.471 -0.848,-0.985 -1.442,-1.096c-0.822,-0.154 -2.985,0.326 -2.985,0.326Z" style="fill:#fff5e2;fill-opacity:0.48;"/><path d="M175.902,511.61c-0.601,0.309 -0.557,1.682 0,2.028c0.557,0.345 1.82,-0.149 2.837,0.045c0.974,0.186 2.312,1.321 2.756,1.117c0.445,-0.204 0.271,-1.809 -0.089,-2.34c-0.36,-0.532 -1.295,-0.672 -2.073,-0.85c-1.068,-0.244 -2.775,-0.338 -3.432,0Z" style="fill:#fff5e2;fill-opacity:0.48;"/><path d="M175.397,517.468l0,2.073c0,0 1.743,-0.06 2.466,0c0.632,0.053 1.456,0.548 1.867,0.36c0.411,-0.188 0.787,-1.059 0.598,-1.487c-0.188,-0.428 -1.061,-0.953 -1.728,-1.081c-0.822,-0.158 -3.203,0.135 -3.203,0.135Z" style="fill:#fff5e2;fill-opacity:0.48;"/><path d="M175.397,523.235l0,1.622c0,0 1.366,0.053 1.9,-0.135c0.515,-0.181 1.209,-0.691 1.303,-0.991c0.094,-0.3 -0.376,-0.755 -0.737,-0.811c-0.534,-0.083 -2.466,0.315 -2.466,0.315Z" style="fill:#fff5e2;fill-opacity:0.48;"/><path d="M231.016,522.92c0,0 -1.694,-0.161 -2.199,0c-0.405,0.13 -0.745,0.589 -0.829,0.969c-0.084,0.38 0.054,1.086 0.324,1.311c0.27,0.224 0.901,0.093 1.298,0.036c0.378,-0.054 1.801,-0.12 1.801,-0.12l-0.395,-2.196Z" style="fill:#fff5e2;fill-opacity:0.48;"/><path d="M229.791,516.873c0,0 -2.445,0.733 -3.028,1.117c-0.356,0.235 -0.433,0.871 -0.469,1.189c-0.029,0.253 -0.002,0.713 0.252,0.721c0.354,0.012 1.382,-0.499 1.874,-0.649c0.354,-0.108 1.598,-0.271 1.598,-0.271l-0.228,-2.108Z" style="fill:#fff5e2;fill-opacity:0.48;"/><path d="M229.502,510.781c0,0 -2.505,0.709 -3.208,1.117c-0.482,0.28 -0.878,0.792 -1.009,1.334c-0.156,0.642 0.074,2.518 0.074,2.518c0,0 1.042,-0.9 1.641,-1.228c0.691,-0.378 2.502,-1.037 2.502,-1.037l0,-2.703Z" style="fill:#fff5e2;fill-opacity:0.48;"/><path d="M229.502,505.194c0,0 -2.013,0.06 -2.775,0.469c-0.763,0.409 -1.451,1.179 -1.802,1.982c-0.351,0.803 -0.604,2.682 -0.303,2.838c0.3,0.156 1.376,-1.452 2.106,-1.901c0.683,-0.42 2.271,-0.793 2.271,-0.793l0.505,-2.595" style="fill:#fff5e2;fill-opacity:0.48;"/><path d="M269.96,517.18l-14.895,-0.766l0,5.871c-1.074,3.297 -1.806,6.025 -3.337,7.649l2.139,2.227c4.949,2.883 11.46,3.495 16.702,3.019c2.449,-0.468 3.778,-2.537 4.099,-6.046c0,0 -0.109,-6.672 -0.383,-6.849c-0.274,-0.177 -4.325,-5.104 -4.325,-5.104Z" style="fill:#fad0a6;"/><path d="M269.097,517.08l-13.103,-0.358c0,0 0.522,3.955 0.184,5.679c-0.346,1.761 -0.983,4.28 -1.597,5.295c-0.474,0.784 -1.998,2.46 -1.998,2.46l-0.855,-0.666l1.553,-2.055l0.779,-1.712l0.419,-1.44l0.198,-1.029l0.388,-2.072l0,-1.345l-0.102,-2.168l-0.72,-2.226l2.366,-0.007l10.925,0.593l1.562,1.051Z" style="fill:#fff;"/><path d="M266.438,516.165c0,0 2.553,0.845 4.114,3.136c0.506,0.742 3.057,4.043 3.134,6.424c0.092,2.858 -0.728,6.252 -2.195,7.074c-2.128,1.192 -7.992,0.778 -11.542,0.07c-2.902,-0.579 -7.447,-3.959 -7.447,-3.959l-1.023,1.261l-1.802,1.99l2.026,1.598l3.055,1.177l3.7,1.093l4.681,0.785l5.269,0.319l4.148,-1.216l2.607,-2.41l1.85,-3.98l0.318,-2.13l-0.234,-2.382l-1.766,-3.896l-1.682,-3.42l-1.822,-2.495l-0.897,-0.981l-2.298,-0.673l-1.598,-0.028l-0.729,0.505l0.132,2.139Z" style="fill:#e09173;"/><path d="M156.48,515.359l-8.797,4.282l-2.092,5.596l-0.883,4.185l0.445,2.871l2.099,3.212l4.519,1.022l6.715,-3.705l1.941,-2.701l-1.682,-1.462l-1.421,-1.79l-0.763,-2.268l-0.303,-2.852l0.222,-5.125l0,-1.265Z" style="fill:#fad0a6;"/><path d="M159.514,528.919c-1.024,2.448 -3.835,4.803 -12.263,6.861c0,0 2.857,1.348 4.389,1.675c1.585,0.338 3.708,0.459 5.118,0.351c1.16,-0.089 3.345,-1 3.345,-1l4.742,-2.639l1.059,-1.526c0,0 -4.528,-1.719 -6.39,-3.721Z" style="fill:#e09173;"/><path d="M144.708,530.687c0,0 1.365,-6.499 2.544,-8.627c0.991,-1.79 3.073,-3.145 4.529,-4.142c1.262,-0.864 4.204,-1.837 4.204,-1.837c0,0 -0.524,3.094 -0.343,4.453c0.175,1.313 0.601,2.796 0.601,2.796c0,0 -0.211,-2.971 -0.032,-4.44c0.18,-1.476 1.113,-4.416 1.113,-4.416l-5.637,1.17l-3.083,2.616l-2.491,3.208l-1.152,3.644l-0.252,5.575Z" style="fill:#fff5e2;"/><path d="M179.028,503.397c0,0 1.811,1.552 2.273,2.398c0.435,0.797 0.415,1.993 0.498,2.678c0.057,0.474 0,1.433 0,1.433l0.592,0.467l0.561,-1.682l-0.249,-2.616l-0.997,-1.588l-0.965,-0.903l-1.713,-0.187Z" style="fill:#e09173;"/><path d="M180.99,509.888l1.645,0.9l0.586,1.431l0.298,1.531l-0.566,2.395l-0.965,0.113c0,0 0.573,-0.757 0.695,-1.205c0.132,-0.489 0.128,-1.172 0.099,-1.729c-0.028,-0.545 -0.213,-1.304 -0.269,-1.616c-0.057,-0.312 -0.904,-1.331 -1.522,-1.821Z" style="fill:#e09173;"/><path d="M180.99,516.258c0,0 0.405,1.243 0.437,1.806c0.03,0.53 -0.038,1.084 -0.244,1.572c-0.225,0.535 -1.107,1.639 -1.107,1.639l0.914,0.266l1.264,-1.484l0.435,-1.395l-0.435,-1.882l-1.264,-0.522Z" style="fill:#e09173;"/><path d="M179.674,521.541c0,0 0.191,1.41 0.083,1.964c-0.098,0.504 -0.36,0.999 -0.729,1.356c-0.538,0.521 -2.496,1.772 -2.496,1.772l2.496,-0.664l1.614,-1.606l0.348,-1.993l0,-0.609l-1.316,-0.22Z" style="fill:#e09173;"/><path d="M224.85,505.217c0,0 -0.927,2.097 -1.102,3.216c-0.182,1.164 0.009,3.77 0.009,3.77l2.088,-1.19l-2.422,2.898l-0.692,-2.812l-0.043,-2.812l0.995,-1.86l1.168,-1.211Z" style="fill:#e09173;"/><path d="M225.477,511.737c0,0 -1.095,1.696 -1.211,2.551c-0.116,0.855 0.326,2.027 0.516,2.579c0.105,0.304 0.625,0.734 0.625,0.734l-0.886,0.549l-0.886,-1.612l-0.372,-2.215l0.78,-1.251l1.435,-1.336Z" style="fill:#e09173;"/><path d="M225.477,517.546c0,0 -0.061,1.299 0,1.913c0.06,0.6 0.166,1.323 0.368,1.772c0.171,0.38 0.844,0.921 0.844,0.921l-0.585,0.496l-1.39,-1.665l-0.204,-2.833l0.967,-0.604Z" style="fill:#e09173;"/><path d="M227.416,521.94c0,0 -0.292,1.523 -0.221,2.147c0.064,0.57 0.38,1.474 0.642,1.984c0.273,0.532 0.997,1.207 0.997,1.207l-1.639,-0.443l-0.952,-2.192l0.022,-1.351l-0.022,-0.642l1.174,-0.709Z" style="fill:#e09173;"/></g></g><g id="Hair"><path d="M136.294,400.736c0,0 -5.829,10.001 -6.768,14.327c-0.63,2.903 1.133,11.628 1.133,11.628l2.439,-6.506l2.926,-4.031l0.748,5.397l1.366,4.747c1.423,4.275 3.711,8.092 6.652,11.564l2.698,2.035l-1.073,-8.31l-0.626,-18.164l5.382,-5.334l16.129,-12.049l7.493,-4.588l-1.433,7.95l-1.789,5.846l-4.37,9.343l11.777,-3.912l22.023,-14.64l-0,1.41l-1.756,3.849l-1.08,2.543l-1.69,4.29l3.963,-2.117l1.321,-1.577l7.411,-8.398l-26.353,-4.323l-15.186,-3.043l-23.548,2.646l-7.788,9.415Z" style="fill:#b3897c;"/><path d="M179.289,396.572l-1.244,0.488c0,0 -2.745,9.055 -4.06,10.613c-1.514,1.794 -7.846,7.807 -7.846,7.807l15.565,-4.837l9.798,-5.829l8.186,-6.697l1.312,-2.077l2.914,1.103c-1.521,2.712 -3.401,5.744 -6.831,10.153l-1.054,2.381l7.131,-4.118l8.682,-8.31l-9.736,-2.232l-8.744,1.023l-14.073,0.532Z" style="fill:#613d2d;"/><path d="M134.42,403.113l3.391,-0.388c0,0 -2.784,4.417 -3.588,6.609c-0.824,2.245 -1.353,6.859 -1.353,6.859l4.116,-3.499c0.395,6.601 1.447,11.345 3.151,15.61c1.513,3.786 7.073,9.98 7.073,9.98c-1.245,-4.422 -1.537,-12.095 -0.919,-22.867l-4.15,4.374c-0.61,-4.63 -0.329,-10.686 0.806,-14.645c0.41,-1.43 1.304,-3.213 2.217,-4.822c1.319,-2.325 2.679,-4.286 2.679,-4.286l-24.565,1.597l0.872,2.86l4.968,2.584l5.303,0.032Z" style="fill:#613d2d;"/><path d="M150.041,396.465c0,0 -3.353,4.912 -4.856,8.783c-1.378,3.55 -3.045,14.544 -3.045,14.544l7.813,-7.813l11.782,-9.583l5.581,-6.356l-17.276,0.425Z" style="fill:#613d2d;"/><path d="M163.057,397.841c0,0 -8.068,7.445 -11.461,10.805c-3.058,3.028 -8.899,9.354 -8.899,9.354c0,0 -0.318,-3.797 -0.199,-5.478c0.167,-2.366 1.204,-8.721 1.204,-8.721c0,0 -1.978,5.513 -2.279,8.178c-0.266,2.351 0.471,7.813 0.471,7.813l3.566,-3.266l4.389,-4.183l3.292,-2.667l4.663,-4.466l10.053,-7.574l-4.8,0.204Z" style="fill:#461d14;"/><path d="M144.501,416.925c0,0 -0.313,9.365 0.134,13.194c0.39,3.345 2.545,9.778 2.545,9.778l-0.38,-5.745l-0.51,-4.543l0,-6.344l0.424,-7.972l-2.214,1.633Z" style="fill:#461d14;"/><path d="M122.829,397.637c0,0 3.572,3.81 5.86,4.583c2.288,0.773 7.868,0.054 7.868,0.054c0,0 -3.567,4.957 -4.38,7.62c-1.012,3.314 -1.57,7.41 -1.814,9.899c-0.164,1.673 0.349,5.031 0.349,5.031l1.953,-3.907l-2.058,6.678l-1.029,-3.263l-0.495,-3.981l0.152,-4.039l1.067,-5.467l2.305,-4.686l1.829,-2.153l0.419,-0.667l-3.01,0.61l-3.696,-0.572l-2.858,-1.429l-4.242,-3.654l1.778,-0.656Z" style="fill:#461d14;"/><path d="M196.342,398.67c0,0 -8.019,7.02 -12.277,9.434c-4.704,2.667 -16.208,6.171 -16.208,6.171c0,0 2.383,-3.375 3.166,-5.561c0.752,-2.098 1.792,-7.155 1.792,-7.155l-2.508,6.096l-1.746,3.334l-2.953,4.921l4.477,-0.826l6.223,-2.096l7.525,-3.175l6.033,-3.588l5.652,-4.318l4.509,-3.747l-3.683,0.508Z" style="fill:#461d14;"/><path d="M209.744,398.162c0,0 -3.341,3.714 -5.25,5.313c-2.141,1.794 -7.599,5.45 -7.599,5.45l2.282,-7.64l-4.118,9.575l7.441,-4.904l6.796,-5.514l2.778,-2.805l-2.332,0.525Z" style="fill:#461d14;"/><path d="M121.051,398.412l44.916,0.67l8.631,-5.932l-1.18,6.145l24.892,0l2.69,-1.972l-0.847,1.972l10.216,0l4.293,-4.74l-17.29,-1.935l-7.635,-1.339l-11.519,-2.411l-12.524,-2.076l-12.272,-2.277l-4.337,-0.592l-4.837,2.947l-5.113,2.831l-4.411,2.195l-7.527,3.797l-6.146,2.719" style="fill:#29100c;"/><path d="M244.15,405.99l1.368,3.367l1.747,4.019l4.26,12.716l0.706,8.927l0.771,8.22l3.708,-11.303l0,-17.661l-1.524,-6.807l-11.035,-1.478Z" style="fill:#b3897c;"/><path d="M233.349,400.008l3.63,1.249l2.521,10.036l-3.863,-5.303l-1.973,-3.746l-0.605,-1.815l0.289,-0.421Z" style="fill:#b3897c;"/><path d="M235.192,401.257c0,0 2.825,7.265 4.168,9.802c1.174,2.219 3.888,5.422 3.888,5.422l0.559,-11.673l-8.615,-3.551Z" style="fill:#613d2d;"/><path d="M249.224,408.933c0,0 3.27,12.079 3.873,17.375c0.551,4.844 -0.26,14.404 -0.26,14.404l0.241,3.703l6.746,-8.75l4.252,-3.773l2.087,-2.178l3.612,0l-5.459,-8.659l-15.092,-12.122Z" style="fill:#613d2d;"/><path d="M268.337,427.961c0,0 -2.852,0.781 -3.909,1.739c-1.938,1.757 -5.874,6.529 -7.719,8.804c-1.238,1.526 -3.354,4.846 -3.354,4.846c0,0 -0.302,-13.138 -1.258,-18.015c-0.776,-3.959 -4.476,-11.245 -4.476,-11.245l3.334,10.979l0.829,5.889l0.562,7.014l0.414,7.369l3.018,-3.581l3.107,-4.113l3.906,-4.321l2.782,-2.397l3.018,-0.681l3.433,-0.148l-3.689,-2.138Z" style="fill:#461d14;"/><path d="M242.443,404.482c0.444,5.012 0.542,8.524 0.329,10.686l-8.426,-11.919c1.485,3.283 3.734,7.202 7.85,12.678l1.562,1.913c0.121,-6.304 0.275,-11.931 0.617,-13.728l-1.932,0.37Z" style="fill:#461d14;"/><path d="M233.306,401.191l10.844,4.799c11.921,8.25 19.935,16.403 25.006,24.482l3.54,1.372c1.836,1.33 3.005,2.914 3.606,4.712l0.045,-3.742l-0.652,-4.652l-0.697,-3.727l3.515,2.53l3.485,2.606l-2.318,-3.788c0,0 -6.842,-9.874 -9.607,-12.949c-1.981,-2.204 -6.982,-5.502 -6.982,-5.502l-8.739,-6.15l-6.797,-3.884l-1.506,-0.847l-3.43,-0.364l-5.311,-0.448l-3.906,-0.34l-1.983,0l1.888,5.892Z" style="fill:#29100c;"/></g><g id="Eye"><ellipse cx="164.334" cy="433.069" rx="10.911" ry="13.54" style="fill:#e6e1dd;"/><ellipse cx="222.604" cy="431.321" rx="14.018" ry="15.288" style="fill:#e6e1dd;"/><path d="M207.275,427.16c0,0 4.851,-8.099 8.859,-10.158c4.341,-2.23 14.581,-0.451 18.024,3.666c3.099,3.706 3.284,15.504 3.284,15.504c0,0 -2.657,-10.683 -5.193,-13.9c-2.255,-2.86 -9.937,-4.948 -14.282,-3.819c-3.977,1.034 -10.692,8.707 -10.692,8.707Z"/><path d="M154.231,439.967c0,0 -0.756,-9.069 0.955,-12.053c1.71,-2.983 5.37,-5.111 7.876,-5.847c2.335,-0.686 6.435,0.386 8.115,2.148c2.029,2.128 4.057,10.621 4.057,10.621c0,0 0.159,-6.287 -0.716,-8.733c-0.839,-2.347 -2.148,-5.09 -4.535,-5.945c-2.387,-0.855 -7.441,-1.88 -9.785,-0.597c-2.506,1.372 -5.768,4.177 -7.041,7.637c-1.273,3.461 1.074,12.769 1.074,12.769Z"/><ellipse cx="166.647" cy="435.134" rx="8.598" ry="10.68" style="fill:#4a2c22;"/><path d="M175.244,435.134c0,5.895 -3.852,10.68 -8.598,10.68c-4.745,0 -8.598,-4.786 -8.598,-10.68l17.195,0Z" style="fill:#a77d64;"/><path d="M173.499,436.218c0,4.698 -3.07,8.512 -6.852,8.512c-3.782,0 -6.852,-3.814 -6.852,-8.512l13.704,0Z" style="fill:#c09e8a;"/><ellipse cx="221.296" cy="432.867" rx="10.143" ry="11.158" style="fill:#4a2c22;"/><path d="M231.439,432.867c0,6.158 -4.545,11.158 -10.143,11.158c-5.598,0 -10.143,-5 -10.143,-11.158l20.287,0Z" style="fill:#a77d64;"/><path d="M229.05,434.181c0,4.708 -3.474,8.529 -7.754,8.529c-4.28,0 -7.754,-3.822 -7.754,-8.529l15.508,0Z" style="fill:#c09e8a;"/><ellipse cx="167.867" cy="434.962" rx="4.468" ry="5.55"/><ellipse cx="221.137" cy="432.957" rx="4.468" ry="5.55"/><ellipse cx="216.669" cy="427.727" rx="2.635" ry="3.273" style="fill:#fff;"/><ellipse cx="162.922" cy="430.877" rx="2.635" ry="3.273" style="fill:#fff;"/><path d="M158.582,404.699l3.546,0.422l2.504,0.256l3.706,0.977l2.344,0.86l-2.709,5.16l-5.992,-0.944l-11.216,0l7.817,-6.731Z" style="stroke:#000;stroke-width:0.57px;"/><path d="M207.61,406.353l-1,3.197l0.694,1.516l1.754,0.362l3.946,-1.933l3.763,-1.425l4.713,-0.858l5.772,0l5.518,0.347l-1.134,-1.604l-1.936,-1.867l-3.288,-1.973l-2.886,-0.839l-3.836,0l-4.312,0.912l-4.896,1.352l-1.973,1.681l-0.9,1.132Z"/></g><g id="Mouth"><path d="M178.614,457.777l3.118,1.995l4.074,1.995l3.866,0.374l7.025,-0.707l4.303,-0.915l5.174,-1.621l2.66,-1.289l3.118,-3.45l0.928,-0.99l-4.919,0.408l-3.907,0.54l-4.074,0.457l-3.325,0.249l-6.235,1.081l-6.318,0.873l-5.487,0.998Z" style="fill:#fffff3;"/><path d="M194.548,465.25l20.378,-0.44l2.016,-6.052l0,-3.665l-0.742,-1.188l-1.277,-0.734l-2.043,0l-1.817,1.922l-1.663,1.9l-4.231,2.494l-3.904,1.93l-2.821,1.455l-3.897,2.377Z" style="fill:#773735;"/><path d="M195.669,464.44l-3.384,2.895l-2.301,2.561l-3.669,4.973l2.667,0.705l4.194,1.034l3.86,0l5.419,-0.959l3.637,-1.41l3.255,-2.112l2.138,-1.829l1.473,-1.663l1.591,-2.827l0.356,-0.998l-20.357,0.44l1.121,-0.81Z" style="fill:#ef7769;"/><path d="M178.845,457.807l-2.28,0.722l-0.817,1.254l0.228,3.23l1.216,3.268l1.748,3.002l2.565,2.869l2.451,1.539l2.66,1.102l1.653,-2.603l2.109,-2.717l3.358,-3.464l3.827,-2.726l3.045,-1.334l3.373,-1.859l0.699,-0.547l-4.073,0.958l-3.589,0.73l-5.61,0.73l-4.105,-0.046l-5.123,-1.839l-2.471,-1.487l-0.868,-0.782Z" style="fill:#6d2c28;"/></g><g id="Belt"><path d="M186.621,551.619l6.766,0l-0.303,9.239l-6.793,0l0.33,-9.239Z" style="fill:#412f21;"/><path d="M209.115,551.619l0.332,9.466l8.302,-0.227l-1.057,-4.619l-0.815,-4.619l-6.762,0Z" style="fill:#412f21;"/><path d="M210.587,552.89l4.198,0l1.446,7.168l-5.479,0l-0.166,-7.168Z" style="fill:#524032;"/><path d="M187.734,552.89l4.61,0l-0.21,7.168l-4.87,-0.058l0.47,-7.11Z" style="fill:#524032;"/><path d="M193.387,551.619l-0.303,9.239l1.613,2.491l11.428,0.242l3.321,-2.476l-0.211,-9.496l-2.795,-1.795l-11.743,0.03l-1.31,1.765Z" style="fill:#7f6e64;"/><path d="M196.522,551.203l-1.73,2.127l-0.094,6.978l1.323,1.981l9.526,0.009l2.359,-2.245l-0.006,-7.515l-2.251,-1.315l-9.126,-0.02Z" style="fill:#b19d96;"/><path d="M197.442,552.89l7.545,0.007l1.453,0.982l-0.038,4.988l-1.939,1.992l-7.157,-0.045l-1.286,-1.57l0.03,-4.799l1.392,-1.555Z" style="fill:#503d36;"/><path d="M198.406,554.865l0.44,-0.42l4.365,0l0.367,0.495l0.375,0.494l-0.059,2.845l-0.272,0.292l-0.386,0.297l-4.699,0l-0.28,-0.272l-0.272,-0.318l0,-2.931l0.42,-0.481Z" style="fill:#67534c;"/></g><g id="Nose"><path d="M188.123,440.607c0,0 -1.876,4.834 -1.597,5.915c0.235,0.912 3.376,2.131 3.376,2.131c-1.114,0.324 -3.42,0.04 -5.033,-0.264l-0.447,-0.666c0.657,-1.939 2.048,-4.429 3.702,-7.116Z" style="fill:#470e00;"/><path d="M188.498,439.93c0,0 -4.511,6.879 -4.043,8.048c0.468,1.169 5.446,0.463 5.446,0.463" style="fill:none;stroke:#000;stroke-width:0.51px;"/></g><g id="Line"><g id="Line1" serif:id="Line"><path d="M149.019,383.923c0,0 -0.999,0.622 -2.728,1.64c-4.748,2.796 -15.006,8.583 -25.24,12.714c4.508,4.684 9.139,7.028 14.006,4.877c-6.196,7.021 -7.275,15.271 -4.478,24.45c1.294,-5.347 2.999,-9.461 5.372,-11.571c1.355,12.331 5.815,19.228 11.488,24.002c-1.338,-7.59 -1.393,-15.693 -0.932,-24.002c6.743,-7.344 16.286,-15.089 28.065,-23.153c-0.974,6.992 -2.999,14.36 -9.016,23.153c17.189,-3.733 27.259,-10.883 35.443,-18.938l-5.88,13.962" style="fill:none;stroke:#000;stroke-width:0.57px;"/><path d="M195.12,411.057c7.199,-4.247 13.078,-9.023 17.731,-14.289c0.896,-1.015 1.005,-1.163 1.811,-2.214" style="fill:none;stroke:#000;stroke-width:0.57px;"/><path d="M146.08,398.867c-3.928,6.744 -5.335,14.182 -4.227,20.925l9.307,-8.735" style="fill:none;stroke:#000;stroke-width:0.57px;"/><path d="M99.251,396.301c0,0 9.91,-14.114 27.825,-15.044c11.58,-0.602 29.382,3.99 42.413,6.059c11.961,1.899 23.748,4.915 35.774,6.355c12.469,1.493 27.881,1.153 39.042,2.602c9.448,1.226 19.187,2.974 27.924,6.091c8.651,3.087 22.845,10.596 28.904,15.348c2.978,2.336 6.293,7.126 8.256,10.979c1.466,2.878 2.007,5.326 2.007,5.326" style="fill:none;stroke:#000;stroke-width:0.57px;"/><path d="M231.466,395.299c2.038,7.903 6.398,16.057 12.272,22.426l0.216,-11.73c0,0 5.42,11.693 6.87,18.204c1.467,6.59 1.933,21.336 1.933,21.336c0,0 9.259,-12.758 12.966,-14.657c2.917,-1.495 7.367,0.597 9.277,3.26c1.99,2.773 3.64,9.278 2.662,13.38c-1.079,4.526 -6.48,10.988 -9.136,13.776c-1.489,1.563 -4.068,1.654 -6.222,1.799c-2.668,0.18 -9.783,-0.72 -9.783,-0.72c0,0 -11.212,11.66 -18.344,15.106c-7.938,3.837 -21.073,6.624 -29.285,7.913c-6.583,1.033 -13.428,0.977 -19.991,-0.18c-7.311,-1.289 -17.761,-3.657 -23.876,-7.553c-5.724,-3.648 -10.521,-9.46 -12.812,-15.826c-2.29,-6.366 -0.931,-22.368 -0.931,-22.368" style="fill:none;stroke:#000;stroke-width:0.57px;"/><path d="M140.734,432.361c-3.651,6.073 -4.148,10.729 -2.935,15.486c1.212,4.757 4.148,9.052 10.209,13.058" style="fill:none;stroke:#000;stroke-width:0.57px;"/><path d="M137.207,446.633c0,0 -27.401,-16.616 -34.276,-24.536c-4.909,-5.655 -7.313,-16.621 -6.978,-22.983c0.31,-5.876 4.1,-11.921 8.992,-15.191c6.144,-4.106 18.25,-7.547 27.875,-9.447c9.951,-1.964 21.193,-2.231 31.831,-2.338c11.929,-0.12 28.293,0.123 39.743,1.619c9.875,1.29 19.429,4.456 28.956,7.356c9.652,2.937 21.52,7.418 28.954,10.269c5.314,2.038 10.455,4.503 15.648,6.834c5.425,2.436 11.767,5.393 16.759,9.075c5.365,3.956 12.229,9.206 15.43,14.664c3.115,5.311 5.305,12.716 3.777,18.082c-1.529,5.365 -7.541,10.717 -12.948,14.11c-5.545,3.478 -13.73,5.241 -20.322,6.761c-6.293,1.451 -19.231,2.359 -19.231,2.359" style="fill:none;stroke:#000;stroke-width:0.57px;"/><path d="M207.602,411.318c1.625,0.602 4.112,-1.373 8.074,-2.89c5.42,-2.075 17.13,-0.763 17.094,-0.916c-0.282,-1.198 -5.115,-5.606 -8.962,-6.138c-3.847,-0.532 -10.945,1.261 -13.379,2.252c-2.977,1.212 -5.184,6.819 -2.827,7.692Z" style="fill:none;stroke:#000;stroke-width:0.57px;"/><path d="M170.682,407.213l-6.19,-1.813l-5.91,-0.702" style="fill:none;stroke:#000;stroke-width:0.57px;"/><path d="M150.41,411.429l9.659,0l7.863,0.655" style="fill:none;stroke:#000;stroke-width:0.57px;"/><path d="M246.675,396.655c0,0 6.737,3.739 9.871,5.967c4.076,2.897 10.349,6.926 14.585,11.418c4.272,4.53 11.049,15.764 11.049,15.764l-7.366,-5.525c1.203,3.881 1.718,8.125 1.547,12.007" style="fill:none;stroke:#000;stroke-width:0.57px;"/><path d="M277.947,398.093c0,0 -1.343,-25.187 -5.77,-33.639c-4.952,-9.453 -15.612,-16.635 -23.94,-23.081c-6.677,-5.168 -14.696,-9.442 -23.081,-10.435c-8.635,-1.023 -28.728,4.297 -28.728,4.297l4.572,-3.192c0,0 -14.471,-3.397 -20.532,-1.35c-6.061,2.046 -11.452,8.216 -15.836,13.627c-5.688,7.022 -18.293,28.505 -18.293,28.505" style="fill:none;stroke:#000;stroke-width:0.57px;"/><path d="M277.491,392.082c-2.734,-2.97 -5.506,-5.18 -9.336,-7.419l-0.168,1.684c-1.95,-3.637 -4.921,-6.692 -9.429,-8.867l0.112,1.628c-4.092,-5.887 -8.982,-9.778 -14.536,-12.01l-0.056,3.031c0,0 -29.667,-8.827 -44.976,-11.42c-16.624,-2.815 -49.391,4.473 -48.039,6.163" style="fill:none;stroke:#000;stroke-width:0.57px;"/><path d="M244.147,370.335l-0.505,14.199" style="fill:none;stroke:#000;stroke-width:0.57px;"/><path d="M258.571,378.865l0.281,11.112" style="fill:none;stroke:#000;stroke-width:0.57px;"/><path d="M268,386.218l-0.112,7.296" style="fill:none;stroke:#000;stroke-width:0.57px;"/><path d="M177.61,458.026c6.113,-1.444 31.43,-4.929 36.874,-4.911c5.175,0.017 0.978,11.536 -1.68,15.434c-2.657,3.897 -9.062,7.347 -14.265,7.951c-5.203,0.604 -13.329,-1.384 -16.954,-4.326c-3.625,-2.943 -8.788,-13.011 -3.975,-14.148Z" style="fill:none;stroke:#000;stroke-width:0.57px;"/><path d="M178.457,457.838c6.72,-1.412 27.118,-4.234 34.423,-4.667c-1.472,1.998 -3.796,4.673 -6.273,5.673c-4.587,1.851 -14.836,3.703 -19.643,3.04c-2.642,-0.364 -6.112,-2.424 -8.507,-4.046Z" style="fill:none;stroke:#000;stroke-width:0.57px;"/><path d="M186.315,474.693c2.3,-3.17 5.739,-7.529 8.757,-9.831c2.352,-1.793 6.997,-3.858 11.573,-5.97c3.59,-1.657 5.876,-5.72 5.876,-5.72c0,0 1.646,-0.365 2.586,0.01c2.586,0.58 2.071,4.878 0.7,8.961c-0.85,2.532 -2.03,4.98 -3.002,6.407c-2.657,3.897 -9.062,7.347 -14.265,7.951c-3.505,0.407 -8.337,-0.362 -12.225,-1.807Z" style="fill:none;stroke:#000;stroke-width:0.57px;"/><path d="M261.665,462.991l-0.299,4.64c0,0 8.86,-0.875 12.347,1.197c3.487,2.072 6.918,6.827 8.573,11.238c1.744,4.647 -1.255,16.274 -7.764,20.781c-2.557,1.771 -7.003,-1.104 -8.678,-3.425c-1.675,-2.322 -1.985,-10.131 -1.745,-13.654c0.266,-3.92 0.773,-5.103 1.686,-7.272c0.651,-1.546 4.17,-4.651 4.17,-4.651" style="fill:none;stroke:#000;stroke-width:0.57px;"/><path d="M274.095,476.613c2.753,0.093 4.85,4.277 4.679,9.339c-0.17,5.062 -2.543,9.096 -5.296,9.003c-2.753,-0.093 -4.85,-4.277 -4.679,-9.339c0.17,-5.062 2.543,-9.096 5.296,-9.003Z" style="fill:none;stroke:#000;stroke-width:0.57px;"/><path d="M273.787,480.827c-1.235,3.305 -1.011,6.61 0,9.915" style="fill:none;stroke:#000;stroke-width:0.57px;"/><path d="M273.365,501.396c0,0 2.267,3.648 2.719,5.76c0.521,2.436 0.407,8.853 0.407,8.853c0,0 5.037,5.476 6.284,8.769c1.247,3.293 1.199,10.991 1.199,10.991l-3.858,0.117c0,0 -0.049,1.794 0,2.689c0.152,2.761 0.01,8.865 -1.331,12.979c-1.341,4.113 -3.078,9.054 -6.714,11.701c-4.049,2.948 -11.095,6.55 -17.579,5.986l-0.094,1.684c0,0 4.537,3.913 5.425,5.799c0.784,1.664 -0.094,5.519 -0.094,5.519c0,0 3.539,4.848 4.303,6.641c0.539,1.265 0.561,2.946 0.281,4.116c-0.272,1.135 -1.964,2.9 -1.964,2.9c0,0 3.044,5.058 3.087,7.39c0.043,2.332 -0.759,5.397 -2.828,6.601c-2.931,1.706 -10.097,3.765 -14.758,3.637c-2.398,-0.066 -4.728,4.108 -7.126,4.162c-3.24,0.073 -10.523,-1.267 -13.154,-3.069c-2.25,-1.541 -2.631,-7.746 -2.631,-7.746c0,0 -8.525,-15.211 -17.34,-21.906c-7.151,5.175 -13.819,11.476 -20.222,18.398l3.362,-0.438l-0.585,7.6c0,0 -4.638,3.116 -7.308,3.654c-3.264,0.658 -8.94,1.023 -12.277,0.292c-2.946,-0.645 -5.213,-3.873 -7.746,-4.677c-2.369,-0.752 -7.454,-0.146 -7.454,-0.146c0,0 -4.157,-5.43 -4.449,-7.793c-0.249,-2.015 2.695,-6.384 2.695,-6.384c0,0 -2.412,-3.547 -2.338,-5.554c0.082,-2.245 2.83,-7.916 2.83,-7.916l0.678,-6.554l6.285,-4.969c0,0 -4.847,-1.386 -5.484,-3.531c-0.658,-2.217 1.538,-9.769 1.538,-9.769c0,0 -3.056,-1.356 -3.508,-2.777c-0.487,-1.535 -0.59,-4.627 0.585,-6.431c1.302,-1.999 5.18,-4.81 7.226,-5.566c1.612,-0.595 5.051,1.035 5.051,1.035l3.362,-4.238l-0.292,-8.039c-0.716,0.9 -1.878,1.443 -3.841,1.345c0,0 -0.614,1.366 -1.183,1.78c-3.026,2.199 -6.685,4.127 -9.363,3.727c-3.278,-0.489 -7.219,-1.046 -9.143,-3.782c-1.924,-2.736 -1.413,-8.792 -0.438,-11.885c0.84,-2.667 6.285,-6.676 6.285,-6.676l-3.8,-2.192c0,0 2.801,-4.165 4.531,-5.7c1.7,-1.508 5.846,-3.508 5.846,-3.508l0.69,1.339c1.574,-3.29 3.943,-5.898 6.764,-8.939c0,0 -3.096,-4.264 -3.582,-6.771c-0.609,-3.142 -0.072,-12.083 -0.072,-12.083" style="fill:none;stroke:#000;stroke-width:0.57px;"/><path d="M169.545,531.167c0,0 -13.563,-8.91 -4.433,-23.228" style="fill:none;stroke:#000;stroke-width:0.57px;"/><path d="M181.992,484.908c0,0 -11.707,7.513 -16.101,11.767" style="fill:none;stroke:#000;stroke-width:0.57px;"/><path d="M181.992,484.908l-11.407,18.134c-4.64,4.058 -9.142,7.978 -13.41,11.663l-5.594,1.119" style="fill:none;stroke:#000;stroke-width:0.57px;"/><path d="M190.066,576.961c4.451,3.718 14.917,5.418 18.895,8.98" style="fill:none;stroke:#000;stroke-width:0.57px;"/><path d="M166.37,543.317c-0.671,0.096 -1.122,13.517 -0.159,17.043c0.491,1.799 0.968,3.632 1.052,5.495c0.097,2.163 0.562,5.206 -0.468,7.483c-2.222,4.911 -8.127,17.565 -12.862,21.982" style="fill:none;stroke:#000;stroke-width:0.57px;"/><path d="M161.006,570.69l3.801,-0.665l1.655,-3.402" style="fill:none;stroke:#000;stroke-width:0.57px;"/><path d="M157.272,557.241l5.463,-6.286" style="fill:none;stroke:#000;stroke-width:0.57px;"/><path d="M153.934,582.061l8.284,-7.92l5.234,-3.451" style="fill:none;stroke:#000;stroke-width:0.57px;"/><path d="M157.415,514.475c0,0 -6.192,14.083 8.489,17.999" style="fill:none;stroke:#000;stroke-width:0.57px;"/><path d="M165.749,559.12c0,0 4.869,5.047 7.659,6.302c3.275,1.473 11.317,6.135 12.269,2.163c0.62,-2.588 0.097,-19.287 2.853,-26.813c3.454,-9.432 2.275,-25.599 2.349,-32.834c0.037,-3.581 -1.855,-10.47 -1.855,-10.47l-8.885,0.12l8.293,-11.928" style="fill:none;stroke:#000;stroke-width:0.57px;"/><path d="M195.98,486.125c0,0 -0.12,9.208 0.716,12.693c0.774,3.226 1.743,9.955 4.303,8.219c4.206,-2.851 20.935,-25.328 20.935,-25.328" style="fill:none;stroke:#000;stroke-width:0.57px;"/><path d="M170.64,503.169c0,0 7.298,-0.132 9.443,0.212c1.029,0.165 2.336,2.08 2.336,2.08c0.534,0.681 0.68,4.458 0,4.952c0,0 0.928,1.295 1.07,2.273c0.143,0.984 -0.264,3.285 -0.264,3.285c-0.463,0.743 -1.402,0.432 -1.402,0.432c0.189,-0.408 0.805,2.226 0.597,3.092c-0.209,0.865 -1.848,2.1 -1.848,2.1c0.617,0 0.482,2.279 -0.495,3.618c-2.023,1.312 -3.983,1.875 -5.873,1.596l-4.658,4.357" style="fill:none;stroke:#000;stroke-width:0.57px;"/><path d="M169.545,539.758l10.531,-14.544" style="fill:none;stroke:#000;stroke-width:0.57px;"/><path d="M169.545,540.469l12.693,0.811l-0.405,7.974c0,0 -2.293,8.434 -6.78,9.057l-9.12,-0.315" style="fill:none;stroke:#000;stroke-width:0.57px;"/><path d="M172.979,534.454c0,0 8.535,1.002 10.883,-0.115c2.205,-1.049 2.908,-4.163 3.206,-6.587c0.49,-3.984 0.51,-13.359 -0.265,-17.32c-0.495,-2.53 -4.674,-5.425 -4.674,-5.425l6.958,-7.451" style="fill:none;stroke:#000;stroke-width:0.57px;"/><path d="M189.024,497.405l5.25,5.25" style="fill:none;stroke:#000;stroke-width:0.57px;"/><path d="M206.101,505.391l8.24,-6.573l3.087,1.212l-5.454,10.138l0.699,22.772l3.916,23.354l3.077,13.285l17.9,-1.958l3.356,0l11.747,-0.14l2.018,1.754" style="fill:none;stroke:#000;stroke-width:0.57px;"/><path d="M254.686,570.986l-16.153,7.07l6.623,18.884l4.206,3.132l13.604,-4.385" style="fill:none;stroke:#000;stroke-width:0.57px;"/><path d="M240.234,577.312l4.97,6.63l7.675,1.588l7.389,-3.077" style="fill:none;stroke:#000;stroke-width:0.57px;"/><path d="M245.204,583.942l5.047,12.676" style="fill:none;stroke:#000;stroke-width:0.57px;"/><path d="M193.45,551.465l-0.369,9.501l1.503,2.416l11.517,0.24l3.23,-2.591l-0.14,-9.642l-3.09,-1.611l-11.319,0.089l-1.332,1.597Z" style="fill:none;stroke:#000;stroke-width:0.57px;"/><path d="M174.176,526.815l0,-23.671" style="fill:none;stroke:#000;stroke-width:0.57px;"/><path d="M174.176,509.221c0,0 4.352,-0.566 8.242,1.245" style="fill:none;stroke:#000;stroke-width:0.57px;"/><path d="M181.814,516.46c0,0 -2.592,-1.335 -7.638,-0.63" style="fill:none;stroke:#000;stroke-width:0.57px;"/><path d="M180.587,521.502c0,0 -4.257,-1.131 -6.411,0.019" style="fill:none;stroke:#000;stroke-width:0.57px;"/><path d="M228.495,479.956l0.151,3.243c0,0 4.968,-0.995 5.909,-0.943c2.753,0.151 8.201,0.962 10.61,1.848c1.621,0.596 3.228,2.663 4.512,3.818c3.394,3.055 11.89,10.755 15.1,13.38c0.936,0.765 4.162,2.368 4.162,2.368c0,0 4.659,5.094 5.465,7.508c0.74,2.215 -0.629,6.977 -0.629,6.977c0,0 3.453,5.936 3.549,8.344c0.107,2.674 -1.26,5.927 -2.91,7.698c-1.65,1.771 -4.341,2.85 -6.988,2.929c-3.354,0.1 -10.126,-1.264 -13.134,-2.328c-1.474,-0.521 -4.677,-2.799 -4.677,-2.799c0,0 -3.529,0.098 -4.716,-0.27c-1.078,-0.335 -2.405,-1.94 -2.405,-1.94c0,0 -3.659,-0.137 -5.255,-0.648c-1.492,-0.478 -4.321,-2.421 -4.321,-2.421c-1.601,0.823 -3.382,1.012 -5.402,0.368c-1.211,-1.177 -1.411,-1.92 -1.282,-4.438c-1.05,-0.443 -1.689,-1.845 -1.734,-4.634c-0.812,-0.63 -1.307,-1.958 -1.282,-4.433c-0.448,-1.096 -0.818,-3.641 -0.491,-5.135c0.325,-1.481 2.455,-3.828 2.455,-3.828c0,0 1.538,-6.712 2.087,-10.109c0.577,-3.57 1.375,-11.314 1.375,-11.314" style="fill:none;stroke:#000;stroke-width:0.57px;"/><path d="M225.184,504.623c0,0 4.254,-0.696 6.402,-0.748c2.426,-0.059 5.935,-0.418 8.361,0.812c2.455,1.244 6.371,6.652 6.371,6.652l4.518,0.295c0,0 2.537,2.472 3.241,3.83c0.68,1.312 1.034,2.845 0.982,4.321c-0.065,1.866 -0.478,4.813 -1.375,6.875c-0.897,2.063 -4.008,5.5 -4.008,5.5" style="fill:none;stroke:#000;stroke-width:0.57px;"/><path d="M246.319,511.339c0,0 1.686,3.781 1.768,5.697c0.082,1.915 -0.516,3.969 -1.277,5.795c-0.9,2.161 -4.125,7.17 -4.125,7.17" style="fill:none;stroke:#000;stroke-width:0.57px;"/><path d="M232.372,503.875c0,0 -0.618,7.186 -0.503,10.556c0.131,3.83 1.289,12.426 1.289,12.426" style="fill:none;stroke:#000;stroke-width:0.57px;"/><path d="M254.293,515.366l12.32,0.73c0,0 -0.491,-2.09 -0,-2.451c0.555,-0.409 3.462,0.031 4.023,0.314c1.236,0.624 3.269,4.059 3.269,4.059" style="fill:none;stroke:#000;stroke-width:0.57px;"/><path d="M251.17,511.339c0,0 4.971,-4.301 7.955,-5.54c2.996,-1.244 10.018,-1.924 10.018,-1.924" style="fill:none;stroke:#000;stroke-width:0.57px;"/><path d="M249.677,487.924c0,0 -5.4,4.79 -6.992,7.449c-1.538,2.567 -2.56,9.34 -2.56,9.34" style="fill:none;stroke:#000;stroke-width:0.57px;"/><path d="M235.652,503.875c0,0 1.45,-7.934 2.852,-10.993c1.541,-3.362 6.11,-8.967 6.11,-8.967" style="fill:none;stroke:#000;stroke-width:0.57px;"/><path d="M230.014,527.629c0,0 3.793,6.843 6.58,9.504c2.881,2.75 10.706,6.997 10.706,6.997l8.348,-0.098c0,0 -8.161,-5.778 -10.749,-8.152c-1.901,-1.744 -4.777,-6.089 -4.777,-6.089" style="fill:none;stroke:#000;stroke-width:0.57px;"/><path d="M249.677,532.143c0,0 -0.466,3.783 -0.466,4.99c0,0.766 0.466,2.251 0.466,2.251" style="fill:none;stroke:#000;stroke-width:0.57px;"/><path d="M247.253,544.129l-8.72,1.631c0,0 -0.1,5.871 0,8.25c0.084,2.017 0.398,4.018 0.598,6.027c0.226,2.275 0.756,7.625 0.756,7.625" style="fill:none;stroke:#000;stroke-width:0.57px;"/><path d="M255.648,544.129c0,0 1.847,4.603 2.212,7.033c0.385,2.564 0.115,6.269 0.098,8.348c-0.011,1.377 -0.142,3.207 -0.912,4.349c-0.917,1.359 -4.625,3.565 -4.625,3.565" style="fill:none;stroke:#000;stroke-width:0.57px;"/><path d="M239.592,545.76c0,0 3.209,6.695 4.813,8.643c1.205,1.464 2.911,3.113 4.807,3.045c2.259,-0.082 8.854,-1.497 8.854,-1.497" style="fill:none;stroke:#000;stroke-width:0.57px;"/><path d="M223.526,514.012l-6.993,-0.236c0,0 -0.517,5.29 -0.393,7.936c0.144,3.061 0.498,8.089 1.257,10.431c0.504,1.553 1.699,3.298 3.3,3.621c3.091,0.623 15.243,0.116 15.243,0.116" style="fill:none;stroke:#000;stroke-width:0.57px;"/><path d="M239.746,545.731c0,0 -2.436,-1.552 -3.821,-1.682c-2.847,-0.267 -13.262,0.08 -13.262,0.08c0,0 -0.17,11.569 0.393,14.983c0.34,2.058 0.995,4.876 2.986,5.5c2.756,0.864 13.551,-0.314 13.551,-0.314" style="fill:none;stroke:#000;stroke-width:0.57px;"/><path d="M182.238,544.024c0,0 -2.046,1.965 -2.767,3.167c-1.034,1.724 -1.494,5.693 -3.781,6.75c-2.287,1.057 -6.44,1.043 -9.942,-0.41" style="fill:none;stroke:#000;stroke-width:0.57px;"/><path d="M187.495,521.504l-6.6,0.314" style="fill:none;stroke:#000;stroke-width:0.57px;"/><path d="M216.121,522.499c3.871,0.909 6.79,0.594 9.612,0.154" style="fill:none;stroke:#000;stroke-width:0.57px;"/><path d="M261.155,467.572c-7.259,5.349 -10.738,12.297 -11.187,20.527" style="fill:none;stroke:#000;stroke-width:0.57px;"/><path d="M261.155,463.054c-7.48,3.662 -13.776,10.389 -16.541,20.861" style="fill:none;stroke:#000;stroke-width:0.57px;"/><path d="M244.9,469.764c0,0 2.282,5.264 1.025,10.843" style="fill:none;stroke:#000;stroke-width:0.57px;"/><path d="M223.536,513.947c0,0 2.2,-4.636 8.407,-5.107" style="fill:none;stroke:#000;stroke-width:0.57px;"/><path d="M224.715,518.032c0,0 4.4,-3.693 7.229,-3.221" style="fill:none;stroke:#000;stroke-width:0.57px;"/><path d="M226.365,522.432c0,0 2.514,-2.121 5.579,-1.886" style="fill:none;stroke:#000;stroke-width:0.57px;"/><path d="M260.104,536.074c0,0 -0.771,14.013 -0.175,17.723c0.312,1.939 1.87,3.986 3.754,4.54c2.474,0.728 8.803,0.32 11.087,-0.175c1.248,-0.27 2.619,-2.794 2.619,-2.794" style="fill:none;stroke:#000;stroke-width:0.57px;"/><path d="M265.255,536.947c0,0 -0.538,7.013 0.262,8.556c0.705,1.359 3.339,1.64 5.151,1.9c1.979,0.284 5.165,0.308 6.722,-0.198c1.224,-0.398 2.794,-1.353 2.794,-1.353" style="fill:none;stroke:#000;stroke-width:0.57px;"/><path d="M277.39,526.01c0,0 2.604,5.214 2.743,9.887" style="fill:none;stroke:#000;stroke-width:0.57px;"/><path d="M265.078,501.532c0,0 2.808,1.509 8.842,-0.335" style="fill:none;stroke:#000;stroke-width:0.57px;"/><path d="M217.437,500.195c0,0 4.583,1.419 7.202,4.693" style="fill:none;stroke:#000;stroke-width:0.57px;"/><path d="M180.349,497.437c-1.19,2.152 -1.68,3.41 -1.968,5.707" style="fill:none;stroke:#000;stroke-width:0.57px;"/><path d="M176.532,526.894c0,0 -0.578,2.736 -0.634,4.273" style="fill:none;stroke:#000;stroke-width:0.57px;"/><path d="M222.487,545.741c0,0 3.004,1.917 3.405,3.492c0.597,2.343 -0.757,8.861 1.397,10.564c2.153,1.702 11.524,-0.349 11.524,-0.349" style="fill:none;stroke:#000;stroke-width:0.57px;"/><path d="M159.044,505.611c1.071,1.587 2.386,2.835 3.934,3.755" style="fill:none;stroke:#000;stroke-width:0.57px;"/><path d="M185.395,613.194c-0.806,8.205 1.108,21.541 0,26.43c-0.535,2.358 -4.405,2.615 -6.65,2.899c-2.245,0.284 -5.593,-0.784 -5.593,-0.784c0,0 -5.553,2.968 -8.151,3.308c-4.121,0.54 -12.141,0.33 -16.301,-0.205c-2.534,-0.325 -7.468,-1.125 -8.662,-3.001c-1.194,-1.876 -0.949,-5.729 0.273,-8.116c1.222,-2.387 4.86,-4.206 7.059,-6.207c2.082,-1.894 4.774,-3.552 6.138,-5.797c1.364,-2.245 1.677,-5.599 2.046,-7.673c0.279,-1.568 0.171,-4.774 0.171,-4.774" style="fill:none;stroke:#000;stroke-width:0.57px;"/><path d="M234.043,617.225c0,0 0.699,5.429 1.609,7.109c0.826,1.526 4.221,5.154 4.589,6.849c0.793,3.657 -0.541,13.202 1.262,16.591c1.592,2.991 6.601,2.728 10.102,3.194c3.74,0.498 9.06,0.578 12.338,-0.205c2.788,-0.665 6.11,-2.273 7.332,-4.49c1.222,-2.217 0.559,-5.927 0,-8.81c-0.654,-3.372 -2.842,-7.588 -3.922,-11.424c-1.072,-3.81 -1.876,-8.8 -2.558,-11.595c-0.426,-1.747 -1.535,-5.172 -1.535,-5.172" style="fill:none;stroke:#000;stroke-width:0.57px;"/><path d="M139.259,637.787c0,0 4.966,2.415 8.027,3.173c3.789,0.939 9.988,1.258 14.706,0.626c4.718,-0.632 10.467,-3.48 10.467,-3.48c6.976,0.041 10.365,-0.618 13.291,-2.101" style="fill:none;stroke:#000;stroke-width:0.57px;"/><path d="M196.614,497.469c2.303,2.703 6.6,2.773 12.627,0.559" style="fill:none;stroke:#000;stroke-width:0.57px;"/></g><path d="M272.821,444.02c0.048,0 -4.844,-14.917 -13.635,5.594" style="fill:none;stroke:#000;stroke-width:0.57px;"/><g><path d="M217.892,561.065l-8.561,0.05" style="fill:none;stroke:#000;stroke-width:0.57px;"/><path d="M186.152,561.115l6.929,0" style="fill:none;stroke:#000;stroke-width:0.57px;"/><path d="M186.621,551.619l6.766,0" style="fill:none;stroke:#000;stroke-width:0.57px;"/><path d="M209.331,551.619l6.712,0" style="fill:none;stroke:#000;stroke-width:0.57px;"/></g></g></svg>